<svg width="644.68" height="368.57" version="1.1" viewBox="0 0 170.57 97.517" xmlns="http://www.w3.org/2000/svg" xmlns:xlink="http://www.w3.org/1999/xlink">
    <defs>
        <linearGradient id="linearGradient14500">
            <stop stop-color="#46001c" offset="0"/>
            <stop stop-color="#b10048" offset="1"/>
        </linearGradient>
        <linearGradient id="linearGradient14876">
            <stop stop-color="#cf0052" offset="0"/>
            <stop stop-color="#b10048" offset="1"/>
        </linearGradient>
        <linearGradient id="linearGradient14949">
            <stop stop-color="#cf0052" offset="0"/>
            <stop stop-color="#ed0060" offset="1"/>
        </linearGradient>
        <linearGradient id="linearGradient7972">
            <stop offset="0"/>
            <stop stop-opacity="0" offset="1"/>
        </linearGradient>
        <linearGradient id="linearGradient15545">
            <stop stop-color="#f0005e" offset="0"/>
            <stop stop-color="#ed0060" offset="1"/>
        </linearGradient>
        <linearGradient id="linearGradient21631-3" x1="-171.01" x2="-171.01" y1="390.3" y2="254.84" gradientTransform="matrix(.25548 0 0 .25548 -355.68 18.224)" gradientUnits="userSpaceOnUse">
            <stop stop-color="#dfdfdf" offset="0"/>
            <stop stop-color="#efefef" offset="1"/>
        </linearGradient>
        <linearGradient id="linearGradient959" x1="-194.6" x2="-162.13" y1="309.23" y2="309.23" gradientTransform="translate(0,-2.6e-4)" gradientUnits="userSpaceOnUse" xlink:href="#linearGradient14500"/>
        <linearGradient id="linearGradient961" x1="-149.65" x2="-162.13" y1="302.99" y2="302.99" gradientTransform="translate(1.07e-6)" gradientUnits="userSpaceOnUse" xlink:href="#linearGradient14876"/>
        <linearGradient id="linearGradient963" x1="-149.65" x2="-162.12" y1="347.94" y2="347.94" gradientUnits="userSpaceOnUse" xlink:href="#linearGradient14949"/>
        <linearGradient id="linearGradient965" x1="-138.48" x2="-138.48" y1="169.9" y2="156.59" gradientTransform="matrix(1 0 0 1.2271 -46.125 139.44)" gradientUnits="userSpaceOnUse" xlink:href="#linearGradient7972"/>
        <linearGradient id="linearGradient967" x1="-138.48" x2="-138.48" y1="169.9" y2="156.59" gradientTransform="matrix(1 0 0 1.2271 323.08 -556.43)" gradientUnits="userSpaceOnUse" xlink:href="#linearGradient7972"/>
        <linearGradient id="linearGradient969" x1="-148.48" x2="-117.55" y1="169.9" y2="169.9" gradientTransform="translate(-46.125 178.04)" gradientUnits="userSpaceOnUse" xlink:href="#linearGradient15545"/>
        <linearGradient id="linearGradient1048" x1="-171.01" x2="-171.01" y1="390.3" y2="254.84" gradientTransform="matrix(.25796 0 0 .25796 -355.26 17.592)" gradientUnits="userSpaceOnUse" xlink:href="#linearGradient1046"/>
        <linearGradient id="linearGradient1046">
            <stop stop-color="#2e4159" offset="0"/>
            <stop stop-color="#32475f" offset="1"/>
        </linearGradient>
        <linearGradient id="linearGradient12541" x1="-171.01" x2="-171.01" y1="390.3" y2="254.84" gradientTransform="matrix(.25796 0 0 .25796 -355.27 20.619)" gradientUnits="userSpaceOnUse" xlink:href="#linearGradient1046"/>
        <filter id="filter12768" x="-.3" y="-.3" width="1.6" height="1.6" color-interpolation-filters="sRGB">
            <feGaussianBlur stdDeviation="4.3681467"/>
        </filter>
    </defs>
    <g transform="translate(484.65 -68.844)">
        <rect x="-484.65" y="69.181" width="170.57" height="97.517" rx="0" ry="0" fill="#fff" stop-color="#000000" style="-inkscape-stroke:none;font-variation-settings:normal"/>
        <rect x="-416.85" y="86.358" width="34.945" height="34.945" rx="9.7628" ry="9.7628" fill="url(#linearGradient12541)" filter="url(#filter12768)" opacity=".5" stop-color="#000000" style="-inkscape-stroke:none;font-variation-settings:normal;mix-blend-mode:normal"/>
        <text x="-399.57938" y="138.32401" fill="#32475f" font-family="Sora" font-size="10.583px" font-weight="800" stroke-width=".26458" text-align="center" text-anchor="middle" style="line-height:1.25" xml:space="preserve"><tspan x="-399.57938" y="138.32401" fill="#32475f" font-family="Sora" font-weight="800" stroke-width=".26458" text-align="center" text-anchor="middle">RePath Studio</tspan></text>
        <text x="-460.4812" y="150.45895" fill="#32475f" font-family="Sora" font-size="7.0819px" font-weight="300" stroke-width=".17705" style="line-height:1.25" xml:space="preserve"><tspan x="-460.4812" y="150.45895" fill="#32475f" font-family="Sora" font-weight="300" stroke-width=".17705">Vector Graphics Manipulation Tool</tspan></text>
        <ellipse cx="-399.37" cy="100.97" rx="17.304" ry="17.305" fill-opacity=".22199" stop-color="#000000" style="-inkscape-stroke:none;font-variation-settings:normal"/>
        <ellipse cx="-399.37" cy="100.64" rx="17.304" ry="17.305" fill="url(#linearGradient21631-3)" stop-color="#000000" style="-inkscape-stroke:none;font-variation-settings:normal"/>
        <path d="m-406.61 90.479v22.275h5.0422v-5.5612h3.145c4.4918 0 8.187-3.6952 8.187-8.187 0-4.4918-3.6952-8.1876-8.187-8.1876-1.1118 0-2.1747.22674-3.145.63563v-.97489zm8.1872 5.3814c1.7669 0 3.1448 1.3786 3.1448 3.1454 0 1.7669-1.378 3.145-3.1448 3.145h-3.145v-3.145c0-.05522.002-.11005.004-.16447.0825-1.6872 1.4294-2.981 3.141-2.981z" color="#000000" fill-opacity=".22199" stop-color="#000000" style="-inkscape-stroke:none;font-variation-settings:normal"/>
        <g transform="matrix(.25211 0 0 .25211 -357.55 16.632)">
            <path d="m-162.13 292.99c-17.817 0-32.475 14.659-32.475 32.477h20c0-7.0084 5.4663-12.477 12.475-12.477 7.0084 0 12.474 5.4684 12.474 12.477s-5.4658 12.475-12.474 12.475h-32.475v20h32.475c17.817 0 32.475-14.657 32.475-32.474s-14.657-32.477-32.475-32.477z" color="#000000" fill="#f00061" stop-color="#000000" style="-inkscape-stroke:none;font-variation-settings:normal"/>
            <path d="m-162.13 292.99c-17.817 0-32.475 14.659-32.475 32.477h20c0-7.0084 5.4663-12.477 12.475-12.477 7.0084 0 12.474 5.4684 12.474 12.477s-5.4658 12.475-12.474 12.475h-32.475v20h32.475c17.817 0 32.475-14.657 32.475-32.474s-14.657-32.477-32.475-32.477z" color="#000000" fill="#f00061" stop-color="#000000" style="-inkscape-stroke:none;font-variation-settings:normal"/>
            <path d="m-162.13 292.99c-17.817 0-32.475 14.659-32.475 32.477h20c0-7.0084 5.4663-12.477 12.475-12.477z" color="#000000" fill="url(#linearGradient959)" stop-color="#000000" style="-inkscape-stroke:none;font-variation-settings:normal"/>
            <path d="m-129.65 325.46c0-17.817-14.659-32.475-32.477-32.475v20c7.0084 0 12.477 5.4663 12.477 12.475z" color="#000000" fill="url(#linearGradient961)" stop-color="#000000" style="-inkscape-stroke:none;font-variation-settings:normal"/>
            <path d="m-162.12 357.94c17.817 0 32.475-14.659 32.475-32.477h-20c0 7.0084-5.4663 12.477-12.475 12.477z" color="#000000" fill="url(#linearGradient963)" stop-color="#000000" style="-inkscape-stroke:none;font-variation-settings:normal"/>
            <path d="m-194.6 291.64v88.355h20v-88.355z" color="#000000" fill="#d50057" stop-color="#000000" style="-inkscape-stroke:none;font-variation-settings:normal"/>
            <rect x="-194.6" y="331.61" width="20" height="16.334" fill="url(#linearGradient965)" opacity=".54664" stop-color="#000000" style="-inkscape-stroke:none;font-variation-settings:normal"/>
            <rect transform="scale(-1)" x="174.6" y="-364.27" width="20" height="16.334" fill="url(#linearGradient967)" opacity=".54664" stop-color="#000000" style="-inkscape-stroke:none;font-variation-settings:normal"/>
            <rect x="-194.6" y="337.94" width="30.926" height="20" fill="url(#linearGradient969)" stop-color="#000000" style="-inkscape-stroke:none;font-variation-settings:normal"/>
        </g>
        <rect x="-416.85" y="83.331" width="34.945" height="34.945" rx="9.7628" ry="9.7628" fill="url(#linearGradient1048)" stop-color="#000000" style="-inkscape-stroke:none;font-variation-settings:normal"/>
        <path d="m-406.48 90.828v22.275h5.0422v-5.5612h3.145c4.4918 0 8.187-3.6952 8.187-8.187 0-4.4918-3.6952-8.1876-8.187-8.1876-1.1118 0-2.1747.22674-3.145.63563v-.97489zm8.1872 5.3814c1.7669 0 3.1449 1.3786 3.1449 3.1454 0 1.7669-1.378 3.145-3.1449 3.145h-3.145v-3.145c0-.05524.002-.11005.004-.16448.0825-1.6872 1.4294-2.981 3.141-2.981z" color="#000000" fill-opacity=".22199" stop-color="#000000" style="-inkscape-stroke:none;font-variation-settings:normal"/>
        <g transform="matrix(.25211 0 0 .25211 -357.42 16.769)">
            <path d="m-162.13 292.99c-17.817 0-32.475 14.659-32.475 32.477h20c0-7.0084 5.4663-12.477 12.475-12.477 7.0084 0 12.474 5.4684 12.474 12.477s-5.4658 12.475-12.474 12.475h-32.475v20h32.475c17.817 0 32.475-14.657 32.475-32.474s-14.657-32.477-32.475-32.477z" color="#000000" fill="#f00061" stop-color="#000000" style="-inkscape-stroke:none;font-variation-settings:normal"/>
            <path d="m-162.13 292.99c-17.817 0-32.475 14.659-32.475 32.477h20c0-7.0084 5.4663-12.477 12.475-12.477 7.0084 0 12.474 5.4684 12.474 12.477s-5.4658 12.475-12.474 12.475h-32.475v20h32.475c17.817 0 32.475-14.657 32.475-32.474s-14.657-32.477-32.475-32.477z" color="#000000" fill="#f00061" stop-color="#000000" style="-inkscape-stroke:none;font-variation-settings:normal"/>
            <path d="m-162.13 292.99c-17.817 0-32.475 14.659-32.475 32.477h20c0-7.0084 5.4663-12.477 12.475-12.477z" color="#000000" fill="url(#linearGradient959)" stop-color="#000000" style="-inkscape-stroke:none;font-variation-settings:normal"/>
            <path d="m-129.65 325.46c0-17.817-14.659-32.475-32.477-32.475v20c7.0084 0 12.477 5.4663 12.477 12.475z" color="#000000" fill="url(#linearGradient961)" stop-color="#000000" style="-inkscape-stroke:none;font-variation-settings:normal"/>
            <path d="m-162.12 357.94c17.817 0 32.475-14.659 32.475-32.477h-20c0 7.0084-5.4663 12.477-12.475 12.477z" color="#000000" fill="url(#linearGradient963)" stop-color="#000000" style="-inkscape-stroke:none;font-variation-settings:normal"/>
            <path d="m-194.6 291.64v88.355h20v-88.355z" color="#000000" fill="#d50057" stop-color="#000000" style="-inkscape-stroke:none;font-variation-settings:normal"/>
            <rect x="-194.6" y="331.61" width="20" height="16.334" fill="url(#linearGradient965)" opacity=".54664" stop-color="#000000" style="-inkscape-stroke:none;font-variation-settings:normal"/>
            <rect transform="scale(-1)" x="174.6" y="-364.27" width="20" height="16.334" fill="url(#linearGradient967)" opacity=".54664" stop-color="#000000" style="-inkscape-stroke:none;font-variation-settings:normal"/>
            <rect x="-194.6" y="337.94" width="30.926" height="20" fill="url(#linearGradient969)" stop-color="#000000" style="-inkscape-stroke:none;font-variation-settings:normal"/>
        </g>
    </g>
</svg>
