<svg version="1.1" viewBox="0 0 1123 258" xmlns="http://www.w3.org/2000/svg">
    <path d="m562.21 183.28-8.8804 8.7485-11.23 2.3958-9.7514-5.7468-18.889 1.5039c-3.0079.84372-9.8948.49617-13.506 1.3309-12.733 2.9432-24.929 6.951-38.169 9.1308-8.4807 1.3966-42.254-5.2893-63.452-4.6708-22.565.65838-54.885 5.7592-54.885 5.7592l-4.2481-5.257-4.3885-3.4005-7.9009.15075 3.4783-4.1834-3.1706-7.597-4.3285-5.6674-7.527 1.0136-4.8466-7.1201c-.0337-.0145-.0695-.0272-.10183-.0465-.0465-.0271-.1097-.0305-.16572-.0313-.34924-.006-.56962-.19263-.72251-.49789-.0534-.10703-.13642-.20656-.22602-.28564-.22928-.20171-.48351-.3756-.70362-.58657-.31365-.3007-.60918-.62199-.90494-.94128-.0508-.0554-.0726-.1432-.0938-.22023-.0141-.0267.0389-.0974.0473-.0952.83592-.65956 1.3737-1.1196 2.0789-1.7947.028-.0267.0621-.0665.0929-.0676.0971-.004.15043-.032.21442-.12136.10548-.14796.26399-.25544.38887-.39105 1.2048-1.6442 1.4816-1.7867 2.1617-5.8039.0441-.25988-.12236-.51485-.21077-.76248-.11111-.31067.27607-.76127.42376-1.014.13503-.23062.31725-.43301.48408-.64328.0422-.0529.0972-.1052.15846-.13009.2934-.12055.58902-.23565.88676-.34455.39243-.14346.83671-.20968 1.2517-.32709.29256-.0828.98717-.10982.87296-.26601-.82247-.58516-2.2029-.60069-3.0681-.69052-.34603-.0365-.79391-.15906-1.1106-.31617-.29511-.14645-.60539-.18498-.92312-.20281-.7017-.0394-1.3193.18623-1.8666.62365-.0324.0261-.0367.0875-.0647.12282-.31249.758-.62909 1.4618-1.2329 2.288-.0521.0682-.1391.11875-.22167.15117-.65137.25783-1.2502.60404-1.7721 1.0794-.25965.23639-.50239.49257-.77048.71815-.36962.31097-.74792.61054-1.051.99361-.0266.0339-.0652.0578-.10034.0843-1.5638 1.3467-2.8115 3.0547-3.901 4.8075-.11956.1352-.20458.30192-.30529.45428-.017.0254-.0341.0506-.0552.0719-.80621.81627-1.6194 1.6258-2.5186 2.3384-.097.0773-.14105.14509-.0168.23404-.29437.27655-.57596.54115-.85695.80612.24504.64221.66242.33363-1.2532 1.8272.0141.0165.0244.0327.0372.0494.50239-.23486 4.2196-2.8624 4.697-3.1494h.00075c0 .009.014.019.014.029-.0324.0354-.0643.0715-.0966.1061-.40352.75935-4.1916 3.7013-4.8977 4.1074-.0352.0365-.0787.11794-.0648.13595.80704-.062 1.678-.0125 2.1493-.0821.24627-.24304.48932-.48978.73704-.73124.4844-.47215 2.3959-2.009 2.8849-2.4762 1.133-.94599 2.1194-1.5877 3.409-1.988.19928.0139.40626.23061.43829.43394.0141.0827.0193.16656.032.24932 0 .0335.0146.0745.0341.0959.17089.16762.34554.3316.51895.49641.3851.36598.76924.73246 1.1564 1.0962.0337.032.0871.0442.13079.0654-.13079.10096-.22973.1354-.3009.20063-.20199.18465-.25415.55242-.12575.79807.0409.0786.15127.13874.25732.15846l-13.957 3.1406-3.0893 1.6316-1.7524 3.7085 1.9471 6.7834-8.4792 5.5989 1.4639 6.3974-.91282 1.8839-2.2704.18155-31.578.002-14.458 3.5484c-.60987-4.4776.19436-7.0818-.15029-13.928 0 0 .48584-.8898.48051-1.2433-.0156-1.0441-.76303-3.1504-1.2283-2.8817-.5573.32176-.87902 2.0852-.69422 3.1416.063.35969.58545.92584.58545.92584.25398 6.7204-.4524 9.5996-.67859 14.399l-1.181.28986c-1.42-6.9539-2.9108-13.939-6.1202-21.689-.0568.007.29825-.16745.41663-.52492.27854-.84121-.98152-3.2846-2.7886-3.2846-.72027 0-.0249 2.4711.43503 3.143.29131.4256 1.1516.79629 1.1382.71558 2.3455 7.5835 4.7805 14.822 4.9949 21.824l-29.667 6.8387-59.363-4.8109c-.49365-1.0808 1.0112-5.5989 1.0112-5.5989s-1.926 2.7954-2.124 3.984c-1.5762-2.3399-5.3786-6.2073-5.3786-6.2073s5.998 8.9681 4.2014 7.37l-20.209-3.3217c.78505-6.5922 6.1366-13.26 6.1366-13.26s-8.052 4.917-11.177 9.1782c-5.573-5.7512-.39106-22.711-.39106-22.711s-6.4944 11.963-6.9796 24.581c-4.5065-11.869-8.4648-20.877-8.4648-20.877s1.1801 12.062.1958 20.012c0 0-33.654-6.4561-49.419-6.7386-16.237-.29068-46.87 5.5519-46.87 5.5519l.00018928 59.959 1123-.2114v-50.29l-5.147-1.1441-7.7409-3.2536-7.8566-.27029-.7416 1.0425-.7177-1.6459-11.656-5.5296-10.899-1.1663-4.2595 1.3992-5.5809-.69968-2.8253-1.2379-1.6972-2.6201-4.018-9.6031-1.0397-8.2343c-2.4967-.73267-7.5647-2.1085-7.5647-2.1085l-2.9151.89574 1.8695-1.1494c-3.2773-.7264-5.4193-1.0198-6.8569-1.0453l.7873 1.1484-2.8166-1.3609c-.6861-.441-6.413-.52938-8.2413-.35286l-.9419 7.0072-1.8283 5.0696-.8402 5.779-1.8972 6.3511c-.2324-.0995-3.0466.0727-5.7216 1.1553-.1364.0551-.92-.93528-.7445-1.4493.2488-.72868 1.1951-.33681 2.0918-.98011.3708-.26604-.9408-1.0222-2.1851-.8382-1.5758.23302-4.6961.0564-4.1765.35148.2086.11851 2.5455.80044 2.8943 1.0665.6557.50025.8215 2.1257.7124 2.1192-.5937-.0351-2.0315.042-2.0924.25683-.034.11691-.6665-.39169-1.0706-.65418-.4649-.30212.3144-.91446.4574-.93844.4759-.0797-2.1806-.25782-3.2973.12619-.1114.0384 2.0602.30287 2.3374.79049.2629.46295.064 1.0799-.1097 1.1116-9.1607 1.6764-22.392 3.8158-35.654 4.7902-17.646 1.2967-31.868-1.2892-45.376.61024-25.817 3.6304-76.687 15.371-76.687 15.371s-45.3-10.693-68.418-12.03c-1.6825-.0472-3.7335.004-5.4153.0661-.0369-1.0692-.16388-3.2076-.16388-3.2076s.062 2.4448-.15608 3.2522l-1.2949.0731c-.51859-.74486-.38013-2.63-.38013-2.63s-.26367 1.4341-.10338 2.6679l-.99795.0643-1.2056-9.7301s.51893 9.8891.26505 9.9134c-1.5456.14818-3.173.27107-3.173.27107-1.5818-7.378 1.4424-19.164 1.4424-19.164s-3.7237 11.769-2.7934 19.111l-.77557.16012c.2687-3.9895-2.7046-14.373-2.7046-14.373s2.596 10.411.57495 14.261c-.47109.0172-1.6203.17734-1.6203.17734-.76035-2.4384-1.4348-3.7322-1.4348-3.7322s.97858 2.242.48922 3.996l-2.7999-.22967c-1.4572-1.7999-1.5541-8.9855-1.5541-8.9855s-.32088 8.8738.42377 9.0335c0 0-7.3838.34007-11.207.51027l-11.238 3.1045-39.526-2.7692-3.4162-1.6001-2.1683 1.0843s-6.1172-.57416-9.2038-.87123c-.49366-.0476-1.9192-2.5765-1.9192-2.5765l-5.2841-2.3839-7.109.31467-1.4527 2.0887-3.7206-1.2115-3.048-.15092-1.8809 1.1658s-10.56-.8324-14.541-1.4578c-8.2748-1.3-34.214-12.178-34.214-12.178l-1.88-.80814-2.6779.0875zm-255.44-16.014h.002c.0633.007.12097.0472.20427.12285.46878.42998.94367.85276 1.405 1.2909.12799.12129.22514.27963.31982.43173.0675.1087.0278.18203-.0959.16646-.14599-.0182-.29463-.0636-.42741-.12865-.18916-.0927-.36095-.22181-.54732-.32128-.21743-.11622-.4215-.0576-.61855.0952-.28018-.31955-.55015-.62511-.81627-.93478-.0183-.0216-.0181-.0693-.014-.1025.0215-.43637.22878-.48667.58886-.62002zm.66108 1.8048c.0548.0559.0984.10023.14175.14395-.031.0294-.0776.0894-.0901.0828-.0634-.0327-.11814-.0831-.17664-.12721.0338-.0267.0673-.0536.12506-.0996zm-1.0518.73126v.15845c0-.0164-.0141-.032-.0181-.0488-.0127-.0525-.00074-.0874.0181-.10973z" fill="#1d1e26" fill-rule="evenodd" stop-color="#000000" style="-inkscape-stroke:none;font-variation-settings:normal"/>
</svg>
