<svg width="298.81" height="54.094" version="1.1" viewBox="0 0 298.81 54.094" xmlns="http://www.w3.org/2000/svg">
    <path d="m4.6177 0h289.57c2.5582 0 4.6177 1.9339 4.6177 4.3362v45.422c0 2.4022-2.0595 4.3362-4.6177 4.3362h-289.57c-2.5582 0-4.6177-1.9339-4.6177-4.3362v-45.422c0-2.4022 2.0595-4.3362 4.6177-4.3362z" fill="#4078c0" stop-color="#000000" stroke-width="1.032"/>
    <g fill="#fff" stop-color="#000000" stroke-width=".055802" aria-label="Support us on GitHub">
        <path d="m75.29 32.294q-1.7116 0-2.8872-.53594-1.1756-.55323-1.7807-1.4868-.60509-.95086-.60509-2.1783h2.7489q0 .48408.25933.899.27661.41492.82984.67425.55323.24204 1.4349.24204.79527 0 1.3312-.20746.53594-.20746.81256-.57052.27661-.38034.27661-.86442 0-.60509-.51865-.95086-.51865-.36306-1.677-.46679l-.95086-.08644q-1.8844-.1556-3.0082-1.1756-1.1237-1.02-1.1237-2.697 0-1.2102.57052-2.0919.5878-.88171 1.6251-1.3485 1.0373-.48408 2.455-.48408 1.4868 0 2.5414.51865 1.0719.50136 1.6424 1.4349.57052.91628.57052 2.161h-2.7661q0-.46679-.22475-.84713-.22475-.39763-.67425-.63967-.43221-.24204-1.0892-.24204-.62238 0-1.0546.20746-.41492.20746-.62238.57052-.20746.34577-.20746.76069 0 .53594.38034.93357.38034.39763 1.2448.46679l.96815.08644q1.3831.12102 2.4377.60509 1.0546.46679 1.6424 1.2966.60509.81256.60509 1.9882 0 1.2102-.63967 2.1265-.62238.899-1.7807 1.4004-1.1583.50136-2.7661.50136z"/>
        <path d="m85.473 32.26q-1.6424 0-2.5241-1.0546-.88171-1.0719-.88171-3.2156v-5.4977h2.7661v5.636q0 .76069.43221 1.2102.43221.4495 1.1583.4495.7434 0 1.2102-.46679.46679-.46679.46679-1.2621v-5.5669h2.7661v9.474h-2.1956v-3.9936h.19017q0 1.4349-.38034 2.4031-.36306.95086-1.0892 1.4176t-1.798.46679z"/>
        <path d="m93.426 35.423v-12.932h2.1956v4.0974l-.2939-.01729q.06915-1.4176.58781-2.3858.51865-.98544 1.4004-1.4695.88171-.50136 1.9882-.50136.98544 0 1.7807.36306.81256.36306 1.3831 1.02.58781.63967.88171 1.5214.31119.86442.31119 1.9017v.39763q0 1.02-.2939 1.919-.2939.88171-.86442 1.5387-.55323.65696-1.3658 1.0373-.79527.36306-1.8326.36306-1.0719 0-1.9363-.43221-.84713-.4495-1.3658-1.3485-.51865-.91628-.57052-2.3166l.76069 1.0373v6.2065zm5.1001-5.4631q.70882 0 1.2275-.34577.53594-.34577.82984-.96815.2939-.62238.2939-1.4349t-.2939-1.4176-.81256-.93357q-.51865-.34577-1.2448-.34577-.62238 0-1.1756.2939-.55323.2939-.899.84713-.32848.53594-.32848 1.3139v.63967q0 .7434.34577 1.2793.36306.51865.91628.79527.55323.27662 1.141.27662z"/>
        <path d="m105.58 35.423v-12.932h2.1956v4.0974l-.2939-.01729q.0691-1.4176.5878-2.3858.51865-.98544 1.4004-1.4695.88171-.50136 1.9882-.50136.98544 0 1.7807.36306.81256.36306 1.3831 1.02.58781.63967.88171 1.5214.31119.86442.31119 1.9017v.39763q0 1.02-.2939 1.919-.2939.88171-.86442 1.5387-.55323.65696-1.3658 1.0373-.79527.36306-1.8326.36306-1.0719 0-1.9363-.43221-.84713-.4495-1.3658-1.3485-.51865-.91628-.57051-2.3166l.76069 1.0373v6.2065zm5.1001-5.4631q.70882 0 1.2275-.34577.53594-.34577.82984-.96815.2939-.62238.2939-1.4349t-.2939-1.4176-.81256-.93357q-.51865-.34577-1.2448-.34577-.62238 0-1.1756.2939-.55323.2939-.899.84713-.32848.53594-.32848 1.3139v.63967q0 .7434.34577 1.2793.36306.51865.91629.79527.55322.27662 1.141.27662z"/>
        <path d="m122.35 32.294q-1.2448 0-2.2129-.38034-.96815-.39763-1.6424-1.0719-.65696-.67425-1.0027-1.5387-.34577-.88171-.34577-1.8499v-.39763q0-.98544.34577-1.8671.36306-.899 1.0373-1.5732.69153-.67425 1.6597-1.0546.96815-.39763 2.161-.39763 1.2275 0 2.1783.39763.96815.38034 1.6424 1.0546.67425.67425 1.0373 1.5732.36306.88171.36306 1.8671v.39763q0 .96815-.34577 1.8499-.34577.86442-1.02 1.5387-.65696.67425-1.6251 1.0719-.96815.38034-2.2302.38034zm0-2.3339q.81256 0 1.3485-.34577t.81255-.96815q.29391-.62238.29391-1.3831 0-.81256-.29391-1.4176-.2939-.62238-.84713-.98544-.53594-.36306-1.3139-.36306-.76069 0-1.3139.36306-.55322.36306-.84713.98544-.27661.60509-.27661 1.4176 0 .76069.27661 1.3831.27662.62238.82985.96815.55322.34577 1.3312.34577z"/>
        <path d="m129.51 31.966v-9.474h2.1956v4.0628h-.0519q0-2.0055.84713-3.0946.86442-1.0892 2.4895-1.0892h.36306v2.3858h-.69154q-1.141 0-1.7634.62238-.62239.60509-.62239 1.7634v4.8235z"/>
        <path d="m141.31 32.087q-1.4349 0-2.3166-.34577-.88171-.36306-1.2966-1.1929-.39763-.84713-.39763-2.2821v-8.333h2.576v8.4367q0 .67425.34577 1.0373.36305.34577 1.02.34577h1.4004v2.3339zm-5.4458-7.5723v-2.0227h6.777v2.0227z"/>
        <path d="m151.34 32.26q-1.6424 0-2.5241-1.0546-.88171-1.0719-.88171-3.2156v-5.4977h2.7661v5.636q0 .76069.43221 1.2102.43221.4495 1.1583.4495.74341 0 1.2102-.46679.46679-.46679.46679-1.2621v-5.5669h2.7661v9.474h-2.1956v-3.9936h.19017q0 1.4349-.38035 2.4031-.36305.95086-1.0892 1.4176-.72611.46679-1.798.46679z"/>
        <path d="m162.89 32.26q-2.0227 0-3.1638-.82984-1.141-.82984-1.2102-2.3339h2.455q.0692.4495.53594.81256.48407.34577 1.4349.34577.72612 0 1.1929-.24204.48408-.25933.48408-.72611 0-.41492-.36306-.65696-.36305-.25933-1.2966-.36306l-.7434-.06915q-1.7116-.17288-2.576-.95086-.84713-.77798-.84713-1.9882 0-1.0027.50136-1.677.50137-.67425 1.3831-1.02.899-.34577 2.04-.34577 1.8326 0 2.9563.81256 1.1238.79527 1.1756 2.3166h-2.455q-.0692-.46679-.48407-.77798-.41493-.32848-1.2275-.32848-.63967 0-1.02.24204-.38034.24204-.38034.65696 0 .39763.32848.60509t1.0719.2939l.7434.06915q1.7461.19017 2.7143.96815t.96815 2.0919q0 .95086-.51865 1.6597-.51865.69154-1.4695 1.0719-.95086.36306-2.2302.36306z"/>
        <path d="m177.15 32.294q-1.2448 0-2.2129-.38034-.96815-.39763-1.6424-1.0719-.65696-.67425-1.0027-1.5387-.34577-.88171-.34577-1.8499v-.39763q0-.98544.34577-1.8671.36306-.899 1.0373-1.5732.69153-.67425 1.6597-1.0546.96815-.39763 2.161-.39763 1.2275 0 2.1783.39763.96815.38034 1.6424 1.0546.67425.67425 1.0373 1.5732.36306.88171.36306 1.8671v.39763q0 .96815-.34577 1.8499-.34577.86442-1.02 1.5387-.65696.67425-1.6251 1.0719-.96815.38034-2.2302.38034zm0-2.3339q.81256 0 1.3485-.34577t.81255-.96815q.2939-.62238.2939-1.3831 0-.81256-.2939-1.4176-.2939-.62238-.84713-.98544-.53594-.36306-1.3139-.36306-.76069 0-1.3139.36306-.55323.36306-.84713.98544-.27661.60509-.27661 1.4176 0 .76069.27661 1.3831.27662.62238.82985.96815.55322.34577 1.3312.34577z"/>
        <path d="m184.31 31.966v-9.474h2.1956v4.0628h-.1556q0-1.4522.36306-2.4204.38034-.96815 1.141-1.4522t1.8499-.48408h.12102q1.6597 0 2.5241 1.0892.88171 1.0719.88171 3.2675v5.4113h-2.7661v-5.5669q0-.76069-.4495-1.2448-.4495-.48408-1.2102-.48408-.77798 0-1.262.50136-.46679.48408-.46679 1.2793v5.515z"/>
        <path d="m205.35 32.294q-1.6943 0-2.9563-.55323-1.262-.57052-2.0919-1.5214-.81256-.95086-1.2102-2.1092-.39764-1.1583-.39764-2.3166v-.38034q0-1.1929.39764-2.3339.39763-1.141 1.1929-2.0746.81255-.93357 2.0054-1.4868 1.2102-.55323 2.7834-.55323 1.7116 0 3.0255.63967 1.3139.62238 2.1092 1.7461.79527 1.1065.91628 2.576h-2.8353q-.10373-.69154-.55323-1.2102-.43221-.51865-1.1238-.81256-.67425-.2939-1.5387-.2939-.82984 0-1.4868.2939-.63967.2939-1.1065.82984-.44949.53594-.69153 1.2793-.22475.72611-.22475 1.6078 0 .91628.24204 1.677.25932.7434.7434 1.2966.48407.53594 1.1929.82984.72611.2939 1.6078.2939 1.1756 0 2.04-.48408t1.2448-1.2793l-.34576 1.9363v-3.0082h2.6106v2.697q-.81256 1.3139-2.2475 2.0227-1.4176.69154-3.3021.69154zm-.36306-4.858v-2.04h6.9499v2.04z"/>
        <path d="m214.06 31.966v-9.474h2.7661v9.474zm-1.262-7.434v-2.04h4.0282v2.04zm2.3339-2.9736q-.77798 0-1.1583-.39763-.36306-.41492-.36306-1.0373 0-.63967.36306-1.0373.38034-.41492 1.1583-.41492t1.141.41492q.38034.39763.38034 1.0373 0 .62238-.38034 1.0373-.36306.39763-1.141.39763z"/>
        <path d="m223.69 32.087q-1.4349 0-2.3166-.34577-.88171-.36306-1.2966-1.1929-.39763-.84713-.39763-2.2821v-8.333h2.576v8.4367q0 .67425.34577 1.0373.36305.34577 1.02.34577h1.4004v2.3339zm-5.4458-7.5723v-2.0227h6.777v2.0227z"/>
        <path d="m235.21 31.966v-12.621h2.8353v12.621zm-8.1601 0v-12.621h2.8353v12.621zm2.3339-5.1001v-2.4895h6.3276v2.4895z"/>
        <path d="m243.92 32.26q-1.6424 0-2.5241-1.0546-.88171-1.0719-.88171-3.2156v-5.4977h2.7661v5.636q0 .76069.43221 1.2102.43221.4495 1.1583.4495.7434 0 1.2102-.46679.46678-.46679.46678-1.2621v-5.5669h2.7662v9.474h-2.1956v-3.9936h.19017q0 1.4349-.38034 2.4031-.36306.95086-1.0892 1.4176t-1.798.46679z"/>
        <path d="m257.7 32.277q-1.1583 0-2.04-.48408-.88171-.50136-1.3831-1.4349-.50137-.93357-.53594-2.2821h.32847v3.8899h-2.1956v-12.621h2.7661v6.414l-.65696.82984q.0519-1.4349.53594-2.4031.50137-.98544 1.3658-1.4695.86442-.50136 1.9709-.50136.96815 0 1.7461.36306.79527.34577 1.3485 1.0027.55323.63967.84713 1.5214.31119.88171.31119 1.919v.38034q0 1.0373-.31119 1.919-.2939.88171-.88171 1.556-.57052.65696-1.3831 1.0373-.81256.36306-1.8326.36306zm-.72611-2.3166q.70882 0 1.2275-.34577.53594-.34577.82985-.96815.2939-.63967.2939-1.4349 0-.81256-.2939-1.4176-.29391-.60509-.82985-.93357-.51865-.34577-1.2275-.34577-.62239 0-1.1756.2939-.55322.2939-.89899.84713-.32848.53594-.32848 1.3139v.63967q0 .7434.34577 1.2793.36305.51865.91628.79527.55323.27662 1.141.27662z"/>
    </g>
    <path d="m47.462 16.55c-5.9432 0-10.763 4.8183-10.763 10.762 0 4.7552 3.0838 8.7895 7.3601 10.213.53788.09961.73535-.23351.73535-.51778 0-.25664-.01-1.1045-.01462-2.0038-2.9942.65106-3.626-1.2698-3.626-1.2698-.48958-1.244-1.195-1.5748-1.195-1.5748-.97649-.66799.07361-.65426.07361-.65426 1.0808.07575 1.6498 1.1091 1.6498 1.1091.95992 1.6454 2.5178 1.1697 3.1319.89469.0966-.69543.37552-1.1706.68331-1.4392-2.3905-.27215-4.9035-1.195-4.9035-5.3189 0-1.175.42043-2.1351 1.1089-2.8888-.11175-.27126-.48014-1.3657.10426-2.8482 0 0 .90378-.28926 2.9605 1.1032.85851-.23846 1.7792-.35805 2.6939-.36215.91465.0041 1.8361.12369 2.6962.36215 2.0542-1.3925 2.9567-1.1032 2.9567-1.1032.58582 1.4825.21726 2.5769.10551 2.8482.69008.75371 1.1077 1.7138 1.1077 2.8888 0 4.1337-2.5178 5.0439-4.9144 5.3104.38603.33399.73001.98897.73001 1.9931 0 1.4399-.01247 2.5989-.01247 2.9535 0 .28641.19373.62198.73927.51632 4.274-1.4247 7.3539-5.4576 7.3539-10.211 0-5.9441-4.8186-10.762-10.762-10.762" fill="#fff" fill-rule="evenodd"/>
</svg>
