<svg width="640" height="320" version="1.1" viewBox="0 0 640 320" xmlns="http://www.w3.org/2000/svg" xmlns:xlink="http://www.w3.org/1999/xlink">
 <defs>
  <linearGradient id="linearGradient11" x1="1516.3" x2="1570.6" y1="732.63" y2="732.63" gradientTransform="matrix(.27914 0 0 .27914 -370.12 -136.77)" gradientUnits="userSpaceOnUse">
   <stop stop-opacity=".14895" offset="0"/>
   <stop stop-color="#fff" stop-opacity="0" offset="1"/>
  </linearGradient>
  <linearGradient id="linearGradient9" x1="304.89" x2="304.89" y1="304.89" y2="4.0578" gradientTransform="matrix(1.0637,0,0,1.0637,-4.3163,-4.3163)" gradientUnits="userSpaceOnUse">
   <stop stop-color="#d01761" offset="0"/>
   <stop stop-color="#d01761" offset="1"/>
  </linearGradient>
 </defs>
 <rect width="640" height="320" rx="0" ry="0" fill="url(#linearGradient9)" stop-color="#000000" stroke-width=".99951" style="-inkscape-stroke:none;font-variation-settings:normal"/>
 <g transform="matrix(1.8654 0 0 1.8654 192.57 33.65)">
  <path d="m68.309 28.481a39.256 39.256 0 0 0-39.256 39.256 39.256 39.256 0 0 0 0.0041 0.06379h-0.0041v39.192h24.096v-3.1197a39.256 39.256 0 0 0 15.16 3.1197 39.256 39.256 0 0 0 39.256-39.256 39.256 39.256 0 0 0-39.256-39.256zm0 24.096a15.16 15.16 0 0 1 15.16 15.16 15.16 15.16 0 0 1-15.16 15.16 15.16 15.16 0 0 1-15.16-15.16 15.16 15.16 0 0 1 15.16-15.16z" fill="#fff" stroke-width=".27914" style="-inkscape-stroke:none;font-variation-settings:normal"/>
  <path d="m53.152 67.734v36.138a39.256 39.256 0 0 0 15.16 3.1197 39.256 39.256 0 0 0 39.256-39.256 39.256 39.256 0 0 0 0-4.99e-4h-24.096a15.16 15.16 0 0 1 0 4.99e-4 15.16 15.16 0 0 1-15.16 15.16 15.16 15.16 0 0 1-15.16-15.16 15.16 15.16 0 0 1 0-4.99e-4z" fill="url(#linearGradient11)" stop-color="#000000" stroke-width="1.0289" style="-inkscape-stroke:none;font-variation-settings:normal"/>
 </g>
 <text x="319.77783" y="257.88187" dominant-baseline="auto" fill="#ffffff" font-family="Sora" font-size="11.254px" font-weight="800" stop-color="#000000" stroke-width=".27428" text-align="center" text-anchor="middle" style="-inkscape-stroke:none;font-feature-settings:normal;font-variant-alternates:normal;font-variant-caps:normal;font-variant-east-asian:normal;font-variant-ligatures:normal;font-variant-numeric:normal;font-variant-position:normal;font-variation-settings:normal;line-height:1.25;text-decoration-color:#000000;text-decoration-line:none;text-decoration-style:solid;text-indent:0;text-orientation:mixed;text-transform:none;white-space:normal" xml:space="preserve"><tspan x="319.77783" y="257.88187" dominant-baseline="auto" fill="#ffffff" font-family="Sora" font-size="11.254px" font-weight="800" stop-color="#000000" stroke-width=".27428" text-align="center" text-anchor="middle" style="-inkscape-stroke:none;font-feature-settings:normal;font-variant-alternates:normal;font-variant-caps:normal;font-variant-east-asian:normal;font-variant-ligatures:normal;font-variant-numeric:normal;font-variant-position:normal;font-variation-settings:normal;line-height:1.25;text-decoration-color:#000000;text-decoration-line:none;text-decoration-style:solid;text-indent:0;text-orientation:mixed;text-transform:none;white-space:normal">Repath Studio</tspan></text>
 <text x="246.76929" y="270.78671" fill="#ffffff" font-family="Sora" font-size="7.5312px" font-weight="300" stop-color="#000000" stroke-width=".27428" style="-inkscape-stroke:none;font-variation-settings:normal;line-height:1.25" xml:space="preserve"><tspan x="246.76929" y="270.78671" fill="#ffffff" stroke-width=".27428"><tspan x="246.76929" y="270.78671" fill="#ffffff" font-family="Sora" font-weight="300" stop-color="#000000" stroke-width=".27428" style="-inkscape-stroke:none;font-variation-settings:normal">Scalable Vector Graphics Manipulation</tspan></tspan></text>
 <rect x="-156.56" y="-400.73" width="9.2271e-6" height="8.3046e-5" rx="89.172" ry="8.3046e-5" fill="#040002" stroke-width="4.1823" style="-inkscape-stroke:none"/>
</svg>
