<svg width="254.76" height="54.094" version="1.1" viewBox="0 0 254.76 54.094" xmlns="http://www.w3.org/2000/svg">
    <path d="m4.6177 0h245.52c2.5582 0 4.6177 1.9339 4.6177 4.3362v45.422c0 2.4022-2.0595 4.3362-4.6177 4.3362h-245.52c-2.5582 0-4.6177-1.9339-4.6177-4.3362v-45.422c0-2.4022 2.0595-4.3362 4.6177-4.3362z" fill="#4078c0" stop-color="#000000" stroke-width="1.032"/>
    <g transform="translate(-8.1748 13.026)" fill="#fff" stroke-width=".312" aria-label="Support me on GitHub">
        <g stroke-width=".12911" aria-label="Support Us on GitHub">
            <path d="m62.647 19.045q-1.6387 0-2.7643-.51313-1.1256-.52968-1.7049-1.4235-.57934-.91039-.57934-2.0856h2.6318q0 .46347.24829.86073.26484.39726.79452.64555.52968.23174 1.3739.23174.76142 0 1.2745-.19863.51313-.19863.77797-.54623.26484-.36416.26484-.82762 0-.57934-.49658-.91039-.49658-.3476-1.6056-.44692l-.91039-.08276q-1.8042-.14897-2.8801-1.1256-1.0759-.9766-1.0759-2.5822 0-1.1587.54623-2.0029.56278-.84418 1.5559-1.2911.99315-.46347 2.3505-.46347 1.4235 0 2.4332.49658 1.0263.48002 1.5725 1.3739.54623.87728.54623 2.0691h-2.6484q0-.44692-.21518-.81107-.21518-.38071-.64555-.61244-.41381-.23174-1.0428-.23174-.59589 0-1.0097.19863-.39726.19863-.59589.54623-.19863.33105-.19863.72831 0 .51313.36416.89384.36416.38071 1.1918.44692l.92694.08276q1.3242.11587 2.3339.57934 1.0097.44692 1.5725 1.2414.57934.77797.57934 1.9035 0 1.1587-.61244 2.036-.59589.86073-1.7049 1.3408-1.109.48002-2.6484.48002z"/>
            <path d="m72.397 19.012q-1.5725 0-2.4167-1.0097-.84418-1.0263-.84418-3.0788v-5.2637h2.6484v5.3961q0 .72831.41381 1.1587.41381.43036 1.109.43036.71176 0 1.1587-.44692.44692-.44692.44692-1.2083v-5.3299h2.6484v9.0708h-2.1022v-3.8236h.18208q0 1.3739-.36416 2.3008-.3476.91039-1.0428 1.3573-.6952.44692-1.7215.44692z"/>
            <path d="m80.011 22.041v-12.381h2.1022v3.9229l-.28139-.01655q.06621-1.3573.56278-2.2842.49658-.94349 1.3408-1.407.84418-.48002 1.9035-.48002.94349 0 1.7049.3476.77797.3476 1.3242.9766.56278.61244.84418 1.4566.29794.82762.29794 1.8208v.38071q0 .9766-.28139 1.8373-.28139.84418-.82762 1.4732-.52968.629-1.3076.99315-.76142.3476-1.7546.3476-1.0263 0-1.8539-.41381-.81107-.43036-1.3076-1.2911-.49658-.87728-.54623-2.218l.72831.99315v5.9423zm4.883-5.2306q.67865 0 1.1752-.33105.51313-.33105.79452-.92694.28139-.59589.28139-1.3739 0-.77797-.28139-1.3573-.28139-.57934-.77797-.89384-.49658-.33105-1.1918-.33105-.59589 0-1.1256.28139-.52968.28139-.86073.81107-.3145.51313-.3145 1.258v.61244q0 .71176.33105 1.2249.3476.49658.87728.76142t1.0925.26484z"/>
            <path d="m91.647 22.041v-12.381h2.1022v3.9229l-.28139-.01655q.06621-1.3573.56278-2.2842.49658-.94349 1.3408-1.407.84418-.48002 1.9035-.48002.94349 0 1.7049.3476.77797.3476 1.3242.9766.56278.61244.84418 1.4566.29794.82762.29794 1.8208v.38071q0 .9766-.28139 1.8373-.28139.84418-.82763 1.4732-.52968.629-1.3076.99315-.76142.3476-1.7546.3476-1.0263 0-1.8539-.41381-.81107-.43036-1.3076-1.2911-.49658-.87728-.54623-2.218l.72831.99315v5.9423zm4.883-5.2306q.67865 0 1.1752-.33105.51313-.33105.79452-.92694.28139-.59589.28139-1.3739 0-.77797-.28139-1.3573-.28139-.57934-.77797-.89384-.49658-.33105-1.1918-.33105-.59589 0-1.1256.28139-.52968.28139-.86073.81107-.3145.51313-.3145 1.258v.61244q0 .71176.33105 1.2249.3476.49658.87728.76142t1.0925.26484z"/>
            <path d="m107.7 19.045q-1.1918 0-2.1187-.36416-.92694-.38071-1.5725-1.0263-.629-.64555-.96005-1.4732-.33105-.84418-.33105-1.7711v-.38071q0-.94349.33105-1.7877.3476-.86073.99315-1.5063.6621-.64555 1.589-1.0097.92694-.38071 2.0691-.38071 1.1752 0 2.0856.38071.92694.36415 1.5725 1.0097.64554.64555.99314 1.5063.34761.84418.34761 1.7877v.38071q0 .92694-.33105 1.7711-.33105.82762-.9766 1.4732-.62899.64555-1.5559 1.0263-.92694.36416-2.1353.36416zm0-2.2346q.77797 0 1.2911-.33105t.77797-.92694q.28139-.59589.28139-1.3242 0-.77797-.28139-1.3573-.2814-.59589-.81108-.94349-.51312-.3476-1.258-.3476-.72831 0-1.258.3476-.52968.3476-.81107.94349-.26484.57934-.26484 1.3573 0 .72831.26484 1.3242t.79452.92694 1.2745.33105z"/>
            <path d="m114.56 18.73v-9.0708h2.1022v3.8898h-.0497q0-1.9201.81107-2.9629.82763-1.0428 2.3836-1.0428h.34761v2.2842h-.6621q-1.0925 0-1.6884.59589-.59589.57934-.59589 1.6884v4.6181z"/>
            <path d="m125.86 18.846q-1.3739 0-2.218-.33105-.84417-.3476-1.2414-1.1421-.38071-.81107-.38071-2.1849v-7.9783h2.4663v8.0776q0 .64555.33105.99315.3476.33105.9766.33105h1.3408v2.2346zm-5.214-7.25v-1.9366h6.4886v1.9366z"/>
            <path d="m137.61 19.045q-1.7049 0-2.8967-.629-1.1752-.64555-1.7877-1.8208-.61244-1.1752-.61244-2.7808v-7.1672h2.7146v7.2665q0 .79452.29795 1.3904.31449.57934.87728.89384.57934.3145 1.407.3145.84418 0 1.407-.3145.57934-.3145.87729-.89384.29794-.57934.29794-1.3904v-7.2665h2.7146v7.1672q0 1.6056-.61244 2.7808-.61244 1.1752-1.7877 1.8208-1.1752.629-2.8967.629z"/>
            <path d="m148.69 19.012q-1.9366 0-3.0291-.79452-1.0925-.79452-1.1587-2.2346h2.3505q.0662.43036.51312.77797.46347.33105 1.3739.33105.69521 0 1.1421-.23174.46347-.24829.46347-.6952 0-.39726-.3476-.629-.3476-.24829-1.2414-.3476l-.71175-.06621q-1.6387-.16552-2.4663-.91039-.81107-.74486-.81107-1.9035 0-.96004.48002-1.6056.48003-.64555 1.3242-.9766.86073-.33105 1.9532-.33105 1.7546 0 2.8305.77797 1.0759.76142 1.1256 2.218h-2.3505q-.0662-.44692-.46347-.74486-.39726-.3145-1.1752-.3145-.61244 0-.97659.23174-.36416.23174-.36416.629 0 .38071.3145.57934t1.0262.28139l.71176.06621q1.6718.18208 2.5987.92694.92694.74486.92694 2.0029 0 .91039-.49657 1.589-.49658.6621-1.407 1.0263-.91039.3476-2.1353.3476z"/>
            <path d="m162.34 19.045q-1.1918 0-2.1187-.36416-.92694-.38071-1.5725-1.0263-.62899-.64555-.96004-1.4732-.33105-.84418-.33105-1.7711v-.38071q0-.94349.33105-1.7877.3476-.86073.99315-1.5063.6621-.64555 1.589-1.0097.92694-.38071 2.0691-.38071 1.1752 0 2.0856.38071.92694.36415 1.5725 1.0097.64555.64555.99315 1.5063.34761.84418.34761 1.7877v.38071q0 .92694-.33105 1.7711-.33105.82762-.9766 1.4732-.629.64555-1.5559 1.0263-.92694.36416-2.1353.36416zm0-2.2346q.77797 0 1.2911-.33105.51312-.33105.77796-.92694.2814-.59589.2814-1.3242 0-.77797-.2814-1.3573-.28139-.59589-.81107-.94349-.51313-.3476-1.258-.3476-.72831 0-1.258.3476-.52968.3476-.81107.94349-.26484.57934-.26484 1.3573 0 .72831.26484 1.3242t.79452.92694 1.2745.33105z"/>
            <path d="m169.2 18.73v-9.0708h2.1022v3.8898h-.14897q0-1.3904.3476-2.3174.36415-.92694 1.0925-1.3904.72831-.46347 1.7711-.46347h.11587q1.589 0 2.4167 1.0428.84418 1.0263.84418 3.1284v5.1809h-2.6484v-5.3299q0-.72831-.43037-1.1918-.43036-.46347-1.1587-.46347-.74486 0-1.2083.48002-.44692.46347-.44692 1.2249v5.2802z"/>
            <path d="m189.34 19.045q-1.6222 0-2.8305-.52968-1.2083-.54623-2.0028-1.4566-.77797-.91039-1.1587-2.0194-.38071-1.109-.38071-2.218v-.36416q0-1.1421.38071-2.2346.38071-1.0925 1.1421-1.9863.77797-.89384 1.9201-1.4235 1.1587-.52968 2.665-.52968 1.6387 0 2.8967.61244 1.258.59589 2.0194 1.6718.76141 1.0594.87728 2.4663h-2.7146q-.0993-.6621-.52968-1.1587-.41381-.49657-1.0759-.77797-.64555-.28139-1.4732-.28139-.79452 0-1.4235.28139-.61244.28139-1.0594.79452-.43036.51313-.6621 1.2249-.21518.6952-.21518 1.5394 0 .87728.23173 1.6056.24829.71176.71176 1.2414.46347.51313 1.1421.79452.69521.28139 1.5394.28139 1.1256 0 1.9532-.46347.82763-.46347 1.1918-1.2249l-.33105 1.8539v-2.8801h2.4994v2.5822q-.77797 1.258-2.1518 1.9366-1.3573.6621-3.1615.6621zm-.34761-4.6513v-1.9532h6.6541v1.9532z"/>
            <path d="m197.68 18.73v-9.0708h2.6484v9.0708zm-1.2083-7.1176v-1.9532h3.8567v1.9532zm2.2346-2.847q-.74486 0-1.109-.38071-.3476-.39726-.3476-.99315 0-.61244.3476-.99315.36416-.39726 1.109-.39726t1.0925.39726q.36415.38071.36415.99315 0 .59589-.36415.99315-.34761.38071-1.0925.38071z"/>
            <path d="m206.9 18.846q-1.3739 0-2.218-.33105-.84418-.3476-1.2414-1.1421-.3807-.81107-.3807-2.1849v-7.9783h2.4663v8.0776q0 .64555.33105.99315.3476.33105.9766.33105h1.3408v2.2346zm-5.214-7.25v-1.9366h6.4886v1.9366z"/>
            <path d="m217.93 18.73v-12.083h2.7146v12.083zm-7.8128 0v-12.083h2.7146v12.083zm2.2346-4.883v-2.3836h6.0582v2.3836z"/>
            <path d="m226.27 19.012q-1.5725 0-2.4167-1.0097-.84418-1.0263-.84418-3.0788v-5.2637h2.6484v5.3961q0 .72831.41381 1.1587.41382.43036 1.109.43036.71176 0 1.1587-.44692.44691-.44692.44691-1.2083v-5.3299h2.6484v9.0708h-2.1022v-3.8236h.18207q0 1.3739-.36415 2.3008-.3476.91039-1.0428 1.3573-.6952.44692-1.7215.44692z"/>
            <path d="m239.46 19.028q-1.109 0-1.9532-.46347-.84417-.48002-1.3242-1.3739-.48002-.89384-.51312-2.1849h.31449v3.7243h-2.1022v-12.083h2.6484v6.141l-.629.79452q.0497-1.3739.51313-2.3008.48002-.94349 1.3076-1.407.82762-.48002 1.887-.48002.92694 0 1.6718.3476.76142.33105 1.2911.96005.52968.61244.81107 1.4566.29795.84418.29795 1.8373v.36416q0 .99315-.29795 1.8373-.28139.84418-.84418 1.4897-.54623.629-1.3242.99315-.77796.3476-1.7546.3476zm-.69521-2.218q.67866 0 1.1752-.33105.51313-.33105.79452-.92694.28139-.61244.28139-1.3739 0-.77797-.28139-1.3573-.28139-.57934-.79452-.89384-.49657-.33105-1.1752-.33105-.59589 0-1.1256.28139-.52968.28139-.86073.81107-.31449.51313-.31449 1.258v.61244q0 .71176.33105 1.2249.3476.49658.87728.76142t1.0925.26484z"/>
        </g>
    </g>
    <path d="m27.709 16.928c-5.9432 0-10.763 4.8183-10.763 10.762 0 4.7552 3.0838 8.7895 7.3601 10.213.53788.09961.73535-.23351.73535-.51778 0-.25664-.01-1.1045-.01462-2.0038-2.9942.65106-3.626-1.2698-3.626-1.2698-.48958-1.244-1.195-1.5748-1.195-1.5748-.97649-.66799.07361-.65426.07361-.65426 1.0808.07575 1.6498 1.1091 1.6498 1.1091.95992 1.6454 2.5178 1.1697 3.1319.89469.0966-.69543.37552-1.1706.68331-1.4392-2.3905-.27215-4.9035-1.195-4.9035-5.3189 0-1.175.42043-2.1351 1.1089-2.8888-.11175-.27126-.48014-1.3657.10426-2.8482 0 0 .90378-.28926 2.9605 1.1032.85851-.23846 1.7792-.35805 2.6939-.36215.91465.0041 1.8361.12369 2.6962.36215 2.0542-1.3925 2.9567-1.1032 2.9567-1.1032.58582 1.4825.21726 2.5769.10551 2.8482.69008.75371 1.1077 1.7138 1.1077 2.8888 0 4.1337-2.5178 5.0439-4.9144 5.3104.38603.33399.73001.98897.73001 1.9931 0 1.4399-.01247 2.5989-.01247 2.9535 0 .28641.19373.62198.73927.51632 4.274-1.4247 7.3539-5.4576 7.3539-10.211 0-5.9441-4.8186-10.762-10.762-10.762" fill="#fff" fill-rule="evenodd"/>
</svg>
