<?xml version="1.0" encoding="UTF-8" standalone="no"?>
<svg
   width="117.10401"
   height="30"
   version="1.1"
   viewBox="0 0 117.10401 30"
   id="svg38"
   sodipodi:docname="kofi-button.svg"
   inkscape:version="1.2 (dc2aedaf03, 2022-05-15)"
   inkscape:export-filename="kofi-button.png"
   inkscape:export-xdpi="121.6"
   inkscape:export-ydpi="121.6"
   xmlns:inkscape="http://www.inkscape.org/namespaces/inkscape"
   xmlns:sodipodi="http://sodipodi.sourceforge.net/DTD/sodipodi-0.dtd"
   xmlns="http://www.w3.org/2000/svg"
   xmlns:svg="http://www.w3.org/2000/svg">
  <defs
     id="defs42" />
  <sodipodi:namedview
     id="namedview40"
     pagecolor="#ffffff"
     bordercolor="#999999"
     borderopacity="1"
     inkscape:showpageshadow="0"
     inkscape:pageopacity="0"
     inkscape:pagecheckerboard="0"
     inkscape:deskcolor="#d1d1d1"
     showgrid="false"
     showguides="true"
     inkscape:zoom="3.0426009"
     inkscape:cx="31.716286"
     inkscape:cy="-11.831982"
     inkscape:window-width="2560"
     inkscape:window-height="1371"
     inkscape:window-x="0"
     inkscape:window-y="0"
     inkscape:window-maximized="1"
     inkscape:current-layer="svg38">
    <sodipodi:guide
       position="0,15"
       orientation="0,-1"
       id="guide6530"
       inkscape:locked="false" />
  </sodipodi:namedview>
  <rect
     width="117.10401"
     height="30"
     rx="8"
     fill="#ff5e5b"
     fill-rule="evenodd"
     id="rect2"
     x="0"
     y="0" />
  <path
     d="m 25.295,7 c -0.71556,0 -1.2949,0.57936 -1.2949,1.2949 v 11.953 c 0,1.4311 1.1607,2.5918 2.5918,2.5918 h 12.234 c 1.4311,0 2.5918,-1.1607 2.5918,-2.5918 v -1.6895 h 1.6074 c 3.1008,0 5.6152,-2.5125 5.6152,-5.6133 v -0.33008 c 0,-3.1008 -2.5145,-5.6152 -5.6152,-5.6152 h -1.6074 -16.123 z m 16.123,2.9961 h 1.4648 c 1.5368,0 2.7832,1.2464 2.7832,2.7832 0,1.5368 -1.2464,2.7832 -2.7832,2.7832 H 41.418 Z m -11.904,0.52344 c 1.497,0 2.4454,0.58658 2.8457,1.7578 0.40029,-1.1712 1.3487,-1.7578 2.8457,-1.7578 2.2455,0 3.0794,2.7947 1.9023,4.6211 -0.78469,1.2176 -2.3682,2.7567 -4.748,4.6191 -2.3799,-1.8624 -3.9614,-3.4016 -4.7461,-4.6191 -1.177,-1.8264 -0.34511,-4.6211 1.9004,-4.6211 z"
     fill="#ffffff"
     id="path4" />
  <g
     fill="#ffffff"
     stroke-width="0.312"
     aria-label="Support me on Ko-fi"
     id="g36"
     transform="translate(0.0526536,1.1765003)">
    <text
       xml:space="preserve"
       style="font-style:normal;font-variant:normal;font-weight:bold;font-stretch:normal;font-size:13px;line-height:1.25;font-family:Sora;-inkscape-font-specification:'Sora Bold';fill:#ffffff;fill-opacity:1;stroke-width:0.105295"
       x="60.103271"
       y="18.6985"
       id="text4993"><tspan
         sodipodi:role="line"
         id="tspan4991"
         x="60.103271"
         y="18.6985"
         style="font-size:13px;stroke-width:0.105295">Ko-fi</tspan></text>
  </g>
</svg>
