<svg width="644.68" height="368.57" version="1.1" viewBox="0 0 170.57 97.517" xmlns="http://www.w3.org/2000/svg">
 <defs>
  <filter id="filter3891" x="-.14884" y="-.14884" width="1.2977" height="1.2977" color-interpolation-filters="sRGB">
   <feGaussianBlur stdDeviation="2.1668024"/>
  </filter>
  <linearGradient id="linearGradient4" x1="67.735" x2="67.735" y1="131.41" y2="4.0578" gradientTransform="matrix(.3353 0 0 .3353 62.574 8.9765)" gradientUnits="userSpaceOnUse">
   <stop stop-color="#d01761" offset="0"/>
   <stop stop-color="#e93976" offset="1"/>
  </linearGradient>
  <linearGradient id="linearGradient11" x1="1516.3" x2="1570.6" y1="732.63" y2="732.63" gradientTransform="matrix(.087989 0 0 .087989 -52.73 -32.775)" gradientUnits="userSpaceOnUse">
   <stop stop-opacity=".14895" offset="0"/>
   <stop stop-color="#fff" stop-opacity="0" offset="1"/>
  </linearGradient>
 </defs>
 <rect transform="matrix(1.2218 0 0 1.2218 -18.916 -7.4407)" x="67.815" y="16.078" width="34.94" height="34.94" rx="17.47" ry="17.47" fill="#660d29" fill-opacity=".2633" filter="url(#filter3891)" stop-color="#000000" stroke-width=".99997" style="-inkscape-stroke:none;font-variation-settings:normal"/>
 <text x="85.026627" y="69.480003" fill="#33445b" font-family="Sora" font-size="10.583px" font-weight="800" stop-color="#000000" stroke-width=".25792" text-align="center" text-anchor="middle" style="-inkscape-stroke:none;font-variation-settings:normal;line-height:1.25" xml:space="preserve"><tspan x="85.026627" y="69.480003" fill="#33445b" font-family="Sora" font-weight="800" stop-color="#000000" stroke-width=".25792" text-align="center" text-anchor="middle" style="-inkscape-stroke:none;font-variation-settings:normal">Repath Studio</tspan></text>
 <text x="16.373896" y="81.614952" fill="#33445b" font-family="Sora" font-size="7.0819px" font-weight="300" stop-color="#000000" stroke-width=".25792" style="-inkscape-stroke:none;font-variation-settings:normal;line-height:1.25" xml:space="preserve"><tspan x="16.373896" y="81.614952"><tspan x="16.373896" y="81.614952" fill="#33445b" font-family="Sora" font-weight="300" stop-color="#000000" stroke-width=".25792" style="-inkscape-stroke:none;font-variation-settings:normal">Scalable Vector Graphics Manipulation</tspan></tspan></text>
 <rect x="63.935" y="10.338" width="42.702" height="42.702" rx="21.351" ry="21.351" fill="url(#linearGradient4)" stop-color="#000000" stroke-width=".08336" style="-inkscape-stroke:none;font-variation-settings:normal"/>
 <path d="m85.467 19.315a12.374 12.374 0 0 0-12.374 12.374 12.374 12.374 0 0 0 0.0013 0.02011h-0.0013v12.354h7.5952v-0.98337a12.374 12.374 0 0 0 4.7786 0.98337 12.374 12.374 0 0 0 12.374-12.374 12.374 12.374 0 0 0-12.374-12.374zm0 7.5952a4.7786 4.7786 0 0 1 4.7786 4.7786 4.7786 4.7786 0 0 1-4.7786 4.7786 4.7786 4.7786 0 0 1-4.7786-4.7786 4.7786 4.7786 0 0 1 4.7786-4.7786z" fill="#fff" stroke-width=".072016" style="-inkscape-stroke:none;font-variation-settings:normal"/>
 <path d="m80.69 31.688v11.391a12.374 12.374 0 0 0 4.7787 0.98336 12.374 12.374 0 0 0 12.374-12.374 12.374 12.374 0 0 0 0-1.56e-4h-7.5952a4.7786 4.7786 0 0 1 0 1.56e-4 4.7786 4.7786 0 0 1-4.7786 4.7786 4.7786 4.7786 0 0 1-4.7786-4.7786 4.7786 4.7786 0 0 1 0-1.56e-4z" fill="url(#linearGradient11)" stop-color="#000000" stroke-width=".32431" style="-inkscape-stroke:none;font-variation-settings:normal"/>
</svg>
