<svg width="644.68" height="368.57" version="1.1" viewBox="0 0 170.57 97.517" xmlns="http://www.w3.org/2000/svg">
    <defs>
        <filter id="filter3891" x="-.22269" y="-.22269" width="1.4454" height="1.4454" color-interpolation-filters="sRGB">
            <feGaussianBlur stdDeviation="3.2420307"/>
        </filter>
    </defs>
    <rect x="-.00036994" width="170.57" height="97.517" rx="0" ry="0" fill="#fff" stop-color="#000000" style="-inkscape-stroke:none;font-variation-settings:normal"/>
    <rect x="67.815" y="18.669" width="34.94" height="34.94" rx="17.47" ry="17.47" fill="#33445b" filter="url(#filter3891)" opacity=".3553" stop-color="#000000" stroke-width=".25792" style="-inkscape-stroke:none;font-variation-settings:normal"/>
    <text x="85.070625" y="69.480003" fill="#33445b" font-family="Sora" font-size="10.583px" font-weight="800" stop-color="#000000" stroke-width=".25792" text-align="center" text-anchor="middle" style="-inkscape-stroke:none;font-variation-settings:normal;line-height:1.25" xml:space="preserve"><tspan x="85.070625" y="69.480003" fill="#33445b" font-family="Sora" font-weight="800" stop-color="#000000" stroke-width=".25792" text-align="center" text-anchor="middle" style="-inkscape-stroke:none;font-variation-settings:normal">RePath Studio</tspan></text>
    <text x="24.168798" y="81.614952" fill="#33445b" font-family="Sora" font-size="7.0819px" font-weight="300" stop-color="#000000" stroke-width=".25792" style="-inkscape-stroke:none;font-variation-settings:normal;line-height:1.25" xml:space="preserve"><tspan x="24.168798" y="81.614952" fill="#33445b" font-family="Sora" font-weight="300" stop-color="#000000" stroke-width=".25792" style="-inkscape-stroke:none;font-variation-settings:normal">Vector Graphics Manipulation Tool</tspan></text>
    <rect x="67.815" y="14.491" width="34.94" height="34.94" rx="17.47" ry="17.47" fill="#33445b" stop-color="#000000" stroke-width=".25792" style="-inkscape-stroke:none;font-variation-settings:normal"/>
    <path d="m86.21 23.303c-1.4294 0-2.7822.35436-3.9755.97858-.5064-.61911-1.264-.97822-2.0638-.97832-1.4728-7e-6-2.6667 1.1939-2.6666 2.6666l.04798 14.65h8.658c4.7501 0 8.6581-3.9078 8.6581-8.6578s-3.9078-8.6585-8.6581-8.6585zm0 5.3322c1.8685 0 3.3256 1.4578 3.3256 3.3263s-1.4572 3.3259-3.3256 3.3259h-3.3245v-3.3764c.02613-1.844 1.473-3.2758 3.3245-3.2758z" fill="#f00061" stop-color="#000000" stroke-width=".25792" style="-inkscape-stroke:none;font-variation-settings:normal"/>
</svg>
