<?xml version="1.0" encoding="UTF-8" standalone="no"?>
<svg
   width="233.16148"
   height="30"
   version="1.1"
   viewBox="0 0 233.16149 29.999999"
   id="svg1592"
   sodipodi:docname="github-button.svg"
   inkscape:export-filename="github-button.png"
   inkscape:export-xdpi="121.6"
   inkscape:export-ydpi="121.6"
   inkscape:version="1.2 (dc2aedaf03, 2022-05-15)"
   xmlns:inkscape="http://www.inkscape.org/namespaces/inkscape"
   xmlns:sodipodi="http://sodipodi.sourceforge.net/DTD/sodipodi-0.dtd"
   xmlns="http://www.w3.org/2000/svg"
   xmlns:svg="http://www.w3.org/2000/svg">
  <defs
     id="defs1596" />
  <sodipodi:namedview
     id="namedview1594"
     pagecolor="#ffffff"
     bordercolor="#999999"
     borderopacity="1"
     inkscape:showpageshadow="0"
     inkscape:pageopacity="0"
     inkscape:pagecheckerboard="0"
     inkscape:deskcolor="#d1d1d1"
     showgrid="false"
     inkscape:zoom="3.0849483"
     inkscape:cx="106.80892"
     inkscape:cy="43.112554"
     inkscape:window-width="2560"
     inkscape:window-height="1371"
     inkscape:window-x="0"
     inkscape:window-y="0"
     inkscape:window-maximized="1"
     inkscape:current-layer="svg1592"
     showguides="true" />
  <rect
     width="233.16148"
     height="30"
     rx="8"
     fill="#ff5e5b"
     fill-rule="evenodd"
     id="rect2"
     x="0"
     y="0"
     style="font-variation-settings:normal;opacity:1;fill:#4078c0;fill-opacity:1;stroke-width:1.032;stroke-linecap:butt;stroke-linejoin:miter;stroke-miterlimit:4;stroke-dasharray:none;stroke-dashoffset:0;stroke-opacity:1;stop-color:#000000;stop-opacity:1" />
  <g
     fill="#ffffff"
     stroke-width="0.312"
     aria-label="Support me on Ko-fi"
     id="g36"
     transform="translate(-1.2331543e-6,1.0605408e-5)">
    <text
       xml:space="preserve"
       style="font-style:normal;font-variant:normal;font-weight:bold;font-stretch:normal;font-size:13px;line-height:1.25;font-family:Sora;-inkscape-font-specification:'Sora Bold';fill:#ffffff;fill-opacity:1;stroke-width:0.105295"
       x="60.103271"
       y="18.6985"
       id="text4993"><tspan
         sodipodi:role="line"
         id="tspan4991"
         x="60.103271"
         y="18.6985"
         style="font-size:13px;stroke-width:0.105295">Support me on GitHub</tspan></text>
  </g>
  <path
     d="m 33.137757,6.0588194 c -5.062449,0 -9.167981,4.1042526 -9.167981,9.1671276 0,4.050505 2.626798,7.486943 6.269372,8.699488 0.458169,0.08485 0.626375,-0.198905 0.626375,-0.441048 0,-0.218607 -0.0085,-0.940819 -0.01245,-1.706848 -2.550475,0.554577 -3.088646,-1.081622 -3.088646,-1.081622 -0.417027,-1.059646 -1.017907,-1.341423 -1.017907,-1.341423 -0.831779,-0.568997 0.0627,-0.557302 0.0627,-0.557302 0.920631,0.06452 1.405309,0.944737 1.405309,0.944737 0.817665,1.401561 2.144675,0.996357 2.667769,0.762102 0.08228,-0.592371 0.319869,-0.997123 0.582047,-1.225918 -2.036241,-0.231819 -4.176828,-1.017908 -4.176828,-4.530667 0,-1.000872 0.358125,-1.81869 0.944567,-2.460695 -0.09519,-0.231061 -0.408985,-1.163311 0.08881,-2.426112 0,0 0.769844,-0.2463932 2.52177,0.939712 0.731283,-0.203122 1.515532,-0.304989 2.294678,-0.308482 0.779104,0.0035 1.564,0.10536 2.296637,0.308482 1.749779,-1.1861393 2.518532,-0.939712 2.518532,-0.939712 0.499005,1.262801 0.185064,2.195017 0.08987,2.426112 0.587815,0.642014 0.943546,1.459823 0.943546,2.460695 0,3.521107 -2.144676,4.29642 -4.186113,4.523426 0.328823,0.284495 0.621827,0.84241 0.621827,1.697734 0,1.226514 -0.01062,2.213756 -0.01062,2.515806 0,0.243966 0.165021,0.529806 0.629714,0.439804 3.640615,-1.213566 6.264091,-4.648812 6.264091,-8.697783 0,-5.063216 -4.104509,-9.1671281 -9.167129,-9.1671281"
     fill="#ffffff"
     fill-rule="evenodd"
     id="path1590"
     style="stroke-width:0.851805" />
</svg>
