<svg width="640" height="320" version="1.1" viewBox="0 0 640 320" xmlns="http://www.w3.org/2000/svg" xmlns:xlink="http://www.w3.org/1999/xlink">
 <defs>
  <linearGradient id="linearGradient11" x1="1516.3" x2="1570.6" y1="732.63" y2="732.63" gradientTransform="matrix(.51405 0 0 .51405 -488.8 -216.7)" gradientUnits="userSpaceOnUse">
   <stop stop-opacity=".14895" offset="0"/>
   <stop stop-color="#fff" stop-opacity="0" offset="1"/>
  </linearGradient>
  <linearGradient id="linearGradient17" x1="34.902" x2="34.902" y1="213.75" y2="134.15" gradientTransform="matrix(4.0202 0 0 4.0202 179.69 -539.31)" gradientUnits="userSpaceOnUse">
   <stop stop-color="#d01761" offset="0"/>
   <stop stop-color="#d01761" offset="1"/>
  </linearGradient>
 </defs>
 <rect width="640" height="320" rx="0" ry="0" fill="url(#linearGradient17)" stop-color="#000000" stroke-width=".99951" style="-inkscape-stroke:none;font-variation-settings:normal"/>
 <g fill="#fff">
  <path d="m407.55 155.12a0.5012 0.48975 0 0 0-0.43459 0.24485l-3.2536 5.5054a0.5012 0.48975 0 0 0 0 0.4897l3.2536 5.5054a0.5012 0.48975 0 0 0 0.43459 0.24485h6.5032a0.5012 0.48975 0 0 0 0.43459-0.24485l3.2536-5.5054a0.5012 0.48975 0 0 0 0-0.4897l-3.2536-5.5054a0.5012 0.48975 0 0 0-0.43459-0.24485zm0.28777 0.97941h5.9277l2.9619 5.0157-2.9619 5.0157h-5.9277l-2.9619-5.0157z"/>
  <path d="m501.1 156.11a0.50005 0.50005 0 0 0-0.5 0.5v0.5h-3.6367a1 1 0 0 0-0.86328-0.5 1 1 0 0 0-1 1 1 1 0 0 0 1 1 1 1 0 0 0 0.86328-0.5h1.8184c-1.6328 1.0857-2.6816 2.941-2.6816 5h-0.5a0.50005 0.50005 0 0 0-0.5 0.5v2a0.50005 0.50005 0 0 0 0.5 0.5h2a0.50005 0.50005 0 0 0 0.5-0.5v-2a0.50005 0.50005 0 0 0-0.5-0.5h-0.5c0-2.207 1.4368-4.1227 3.5-4.7695v0.26953a0.50005 0.50005 0 0 0 0.5 0.5h2a0.50005 0.50005 0 0 0 0.5-0.5v-0.26953c2.0642 0.6467 3.5 2.5629 3.5 4.7695h-0.5a0.50005 0.50005 0 0 0-0.5 0.5v2a0.50005 0.50005 0 0 0 0.5 0.5h2a0.50005 0.50005 0 0 0 0.5-0.5v-2a0.50005 0.50005 0 0 0-0.5-0.5h-0.5c0-2.059-1.0494-3.9144-2.6836-5h1.8203a1 1 0 0 0 0.86328 0.5 1 1 0 0 0 1-1 1 1 0 0 0-1-1 1 1 0 0 0-0.86328 0.5h-3.6367v-0.5a0.50005 0.50005 0 0 0-0.5-0.5zm0.5 1h1v1h-1zm-5.5 7h1v1h-1zm11 0h1v1h-1z"/>
  <path d="m551 155.11a0.50005 0.50005 0 0 0-0.35352 0.14648l-8 8a0.50005 0.50005 0 0 0-0.14062 0.27148l-0.5 3a0.50005 0.50005 0 0 0 0.57617 0.57617l3-0.5a0.50005 0.50005 0 0 0 0.27148-0.14062l8-8a0.50005 0.50005 0 0 0 0.14648-0.35352v-1a0.50005 0.50005 0 0 0-0.14648-0.35352l-1.5-1.5a0.50005 0.50005 0 0 0-0.35352-0.14648h-1zm0.20703 1h0.58594l1.207 1.207v0.58594l-0.75 0.75-1.793-1.793 0.75-0.75zm-1.457 1.457 1.793 1.793-5.793 5.793-1.793-1.793zm-6.3457 6.6543 1.4824 1.4824-1.2324 0.20508-0.45508-0.45508z" color="#000000" stroke-linecap="round" stroke-linejoin="round" style="-inkscape-stroke:none"/>
  <path d="m130.91 155.11v12h4v-8h8v-4h-9zm1 1h1.5v0.5a0.5 0.5 0 0 0 0.5 0.5 0.5 0.5 0 0 0 0.5-0.5v-0.5h2v0.5a0.5 0.5 0 0 0 0.5 0.5 0.5 0.5 0 0 0 0.5-0.5v-0.5h2v0.5a0.5 0.5 0 0 0 0.5 0.5 0.5 0.5 0 0 0 0.5-0.5v-0.5h1.5v2h-8v8h-2v-1.5h0.5a0.5 0.5 0 0 0 0.5-0.5 0.5 0.5 0 0 0-0.5-0.5h-0.5v-2h0.5a0.5 0.5 0 0 0 0.5-0.5 0.5 0.5 0 0 0-0.5-0.5h-0.5v-2h0.5a0.5 0.5 0 0 0 0.5-0.5 0.5 0.5 0 0 0-0.5-0.5h-0.5z"/>
  <g transform="translate(585.9 153.11)" stroke-linecap="round" stroke-linejoin="round">
   <path d="m1.5 1c-0.27613 2.76e-5 -0.49997 0.22387-0.5 0.5v9c2.76e-5 0.27613 0.22387 0.49997 0.5 0.5h9c0.27613-2.8e-5 0.49997-0.22387 0.5-0.5v-9c-2.8e-5 -0.27613-0.22387-0.49997-0.5-0.5zm0.5 1h8v8h-8z" color="#000000" style="-inkscape-stroke:none"/>
   <path d="m9.5 4c-3.0316 0-5.5 2.4684-5.5 5.5s2.4684 5.5 5.5 5.5 5.5-2.4684 5.5-5.5-2.4684-5.5-5.5-5.5zm0 1c2.4912 0 4.5 2.0088 4.5 4.5s-2.0088 4.5-4.5 4.5-4.5-2.0088-4.5-4.5 2.0088-4.5 4.5-4.5z" color="#000000" style="-inkscape-stroke:none"/>
   <path d="m7 5v1h1v-1zm1 1v1h1v-1zm1 0h1v-1h-1zm0 1v1h1v-1zm0 1h-1v1h1zm0 1v1h1v-1zm-1 0h-1v1h1zm-1 0v-1h-1v1zm-1 0h-1v1h1zm0-1v-1h-1v1zm0-1h1v-1h-1zm1 0v1h1v-1z" color="#000000" stroke-dasharray="1, 2" style="-inkscape-stroke:none"/>
  </g>
  <path d="m91.509 154.62a0.50005 0.50005 0 0 0-0.5 0.5v0.5h-1.5a0.50005 0.50005 0 0 0-0.5 0.5v3.5h-1.5a0.50005 0.50005 0 0 0-0.5 0.5v3.5a0.50005 0.50005 0 0 0 0.0918 0.29101l2.5 3.5a0.50005 0.50005 0 0 0 0.4082 0.20899h6a0.50005 0.50005 0 0 0 0.48242-0.36719l1.5-5.5a0.50005 0.50005 0 0 0 0.0176-0.13281v-3.5a0.50005 0.50005 0 0 0-0.5-0.5h-1.5v-1.5a0.50005 0.50005 0 0 0-0.5-0.5h-1.5v-0.5a0.50005 0.50005 0 0 0-0.5-0.5zm0.5 1h1v4.5a0.50005 0.50005 0 0 0 1 0v-3.5h1v4a0.50005 0.50005 0 0 0 1 0v-2h1v2.9336l-1.3828 5.0664h-5.3613l-2.2559-3.1602v-2.8398h1v1.5a0.50005 0.50005 0 0 0 1 0v-5.5h1v3.5a0.50005 0.50005 0 0 0 0.5 0.49414 0.50005 0.50005 0 0 0 0.5-0.49414v-4z"/>
  <path d="m40.611 154.11a0.5 0.5 0 0 0-0.5 0.5 0.5 0.5 0 0 0 0.5 0.5h1a0.5 0.5 0 0 0 0.5-0.5 0.5 0.5 0 0 0-0.5-0.5zm3 0a0.5 0.5 0 0 0-0.5 0.5 0.5 0.5 0 0 0 0.5 0.5h1a0.5 0.5 0 0 0 0.5-0.5 0.5 0.5 0 0 0-0.5-0.5zm3 0a0.5 0.5 0 0 0-0.5 0.5 0.5 0.5 0 0 0 0.5 0.5h1a0.5 0.5 0 0 0 0.5-0.5 0.5 0.5 0 0 0-0.5-0.5zm3 0a0.5 0.5 0 0 0-0.5 0.5 0.5 0.5 0 0 0 0.5 0.5h1a0.5 0.5 0 0 0 0.5-0.5 0.5 0.5 0 0 0-0.5-0.5zm3 0a0.5 0.5 0 0 0-0.5 0.5 0.5 0.5 0 0 0 0.5 0.5h1a0.5 0.5 0 0 0 0.5-0.5 0.5 0.5 0 0 0-0.5-0.5zm-12 2a0.5 0.5 0 0 0-0.5 0.5v1a0.5 0.5 0 0 0 0.5 0.5 0.5 0.5 0 0 0 0.5-0.5v-1a0.5 0.5 0 0 0-0.5-0.5zm2 0a0.50005 0.50005 0 0 0-0.5 0.5v4a0.50005 0.50005 0 0 0 0.5 0.5h6a0.50005 0.50005 0 0 0 0.5-0.5v-4a0.50005 0.50005 0 0 0-0.5-0.5zm11 0a0.5 0.5 0 0 0-0.5 0.5v1a0.5 0.5 0 0 0 0.5 0.5 0.5 0.5 0 0 0 0.5-0.5v-1a0.5 0.5 0 0 0-0.5-0.5zm-10.5 1h5v3h-5zm-2.5 2a0.5 0.5 0 0 0-0.5 0.5v1a0.5 0.5 0 0 0 0.5 0.5 0.5 0.5 0 0 0 0.5-0.5v-1a0.5 0.5 0 0 0-0.5-0.5zm10.5 0a0.5 0.5 0 0 0-0.5 0.5 0.5 0.5 0 0 0 0.5 0.5v3h-5a0.5 0.5 0 0 0-0.5-0.5 0.5 0.5 0 0 0-0.5 0.5v0.5a0.50005 0.50005 0 0 0 0.5 0.5h6a0.50005 0.50005 0 0 0 0.5-0.5v-4a0.50005 0.50005 0 0 0-0.5-0.5zm2.5 0a0.5 0.5 0 0 0-0.5 0.5v1a0.5 0.5 0 0 0 0.5 0.5 0.5 0.5 0 0 0 0.5-0.5v-1a0.5 0.5 0 0 0-0.5-0.5zm-13 3a0.5 0.5 0 0 0-0.5 0.5v1a0.5 0.5 0 0 0 0.5 0.5 0.5 0.5 0 0 0 0.5-0.5v-1a0.5 0.5 0 0 0-0.5-0.5zm13 0a0.5 0.5 0 0 0-0.5 0.5v1a0.5 0.5 0 0 0 0.5 0.5 0.5 0.5 0 0 0 0.5-0.5v-1a0.5 0.5 0 0 0-0.5-0.5zm-13 3a0.5 0.5 0 0 0-0.5 0.5 0.5 0.5 0 0 0 0.5 0.5h1a0.5 0.5 0 0 0 0.5-0.5 0.5 0.5 0 0 0-0.5-0.5zm3 0a0.5 0.5 0 0 0-0.5 0.5 0.5 0.5 0 0 0 0.5 0.5h1a0.5 0.5 0 0 0 0.5-0.5 0.5 0.5 0 0 0-0.5-0.5zm3 0a0.5 0.5 0 0 0-0.5 0.5 0.5 0.5 0 0 0 0.5 0.5h1a0.5 0.5 0 0 0 0.5-0.5 0.5 0.5 0 0 0-0.5-0.5zm3 0a0.5 0.5 0 0 0-0.5 0.5 0.5 0.5 0 0 0 0.5 0.5h1a0.5 0.5 0 0 0 0.5-0.5 0.5 0.5 0 0 0-0.5-0.5zm3 0a0.5 0.5 0 0 0-0.5 0.5 0.5 0.5 0 0 0 0.5 0.5h1a0.5 0.5 0 0 0 0.5-0.5 0.5 0.5 0 0 0-0.5-0.5z"/>
  <path d="m460.21 155.36c-0.51289 0-1.0256 0.1936-1.4141 0.58203a0.5 0.5 0 0 0-2e-3 2e-3l-1.5781 1.5781-0.35352-0.35352a0.5 0.5 0 0 0-0.35352-0.14648 0.5 0.5 0 0 0-0.35352 0.14648 0.5 0.5 0 0 0 0 0.70703l0.70703 0.70703-5.207 5.209a0.5 0.5 0 0 0-0.01 8e-3v2e-3c-0.37762 0.37834-0.52704 0.93086-0.38867 1.4473 0.0241 0.0898 0.0564 0.17558 0.0957 0.25781l-0.5 0.5a0.5 0.5 0 0 0 0 0.70898 0.5 0.5 0 0 0 0.70703 0l0.5-0.50195c0.0822 0.0393 0.16804 0.0716 0.25781 0.0957 0.51641 0.13837 1.0689-0.0111 1.4473-0.38867h2e-3l5.2168-5.2168 0.70703 0.70703a0.5 0.5 0 0 0 0.70703 0 0.5 0.5 0 0 0 0-0.70703l-0.35352-0.35352 1.5781-1.5781a0.5 0.5 0 0 0 2e-3 0c0.77686-0.77686 0.77686-2.0532 0-2.8301-0.38843-0.38843-0.90117-0.58203-1.4141-0.58203zm0 0.99414c0.25488 0 0.50967 0.0976 0.70703 0.29492 0.39471 0.39471 0.39471 1.0213 0 1.416h-2e-3l-1.5781 1.5781-1.4141-1.4141 1.5781-1.5781a0.5 0.5 0 0 0 2e-3 -2e-3c0.19736-0.19736 0.45216-0.29492 0.70703-0.29492zm-2.6406 2.9355 0.70703 0.70703-5.207 5.209a0.5 0.5 0 0 0-0.01 8e-3v2e-3c-0.12684 0.12615-0.30955 0.17523-0.48242 0.12891-0.17333-0.0464-0.30708-0.1802-0.35352-0.35352-0.0464-0.17333 2e-3 -0.3575 0.12891-0.48438a0.5 0.5 0 0 0 0.0274-0.0293l5.1895-5.1875z"/>
  <path d="m359.39 155.11a0.50005 0.50005 0 0 0-0.5 0.5v11a0.50005 0.50005 0 0 0 0.5 0.5h11a0.50005 0.50005 0 0 0 0.5-0.5v-11a0.50005 0.50005 0 0 0-0.5-0.5zm0.5 1h10v10h-10zm7.5 1c-0.8225 0-1.5 0.67749-1.5 1.5 0 0.8225 0.6775 1.5 1.5 1.5 0.82251 0 1.5-0.6775 1.5-1.5 0-0.82251-0.67749-1.5-1.5-1.5zm0 1c0.28207 0 0.5 0.21793 0.5 0.5 0 0.28206-0.21793 0.5-0.5 0.5-0.28206 0-0.5-0.21794-0.5-0.5 0-0.28207 0.21794-0.5 0.5-0.5zm-4.0605 1a0.50005 0.50005 0 0 0-0.4082 0.31055l-2 5a0.50005 0.50005 0 0 0 0.46484 0.68555h7a0.50005 0.50005 0 0 0 0.41602-0.77734l-2-3a0.50005 0.50005 0 0 0-0.78516-0.0586l-0.49219 0.53711-1.7285-2.4863a0.50005 0.50005 0 0 0-0.4668-0.21094zm0.17578 1.5449 1.5547 2.2383a0.50005 0.50005 0 0 0 0.7793 0.0508l0.48438-0.5293 1.1289 1.6914h-5.3281l1.3809-3.4512z"/>
  <path d="m227.7 154.02-5 2e-3c-0.27613 3e-5 -0.49997 0.22387-0.5 0.5v13c3e-5 0.27613 0.22387 0.49997 0.5 0.5h9c0.27613-3e-5 0.49998-0.22387 0.5-0.5v-2.5a0.5 0.5 0 0 0-0.5-0.5 0.5 0.5 0 0 0-0.5 0.5v2h-8v-12h4v3.5c3e-5 0.27613 0.22387 0.49997 0.5 0.5h3.5v1a0.5 0.5 0 0 0 0.5 0.5 0.5 0.5 0 0 0 0.5-0.5v-1a0.5 0.5 0 0 0 0-2e-3 0.5 0.5 0 0 0 0-2e-3 0.5 0.5 0 0 0 0-2e-3 0.5 0.5 0 0 0 0-2e-3 0.5 0.5 0 0 0 0-2e-3 0.5 0.5 0 0 0 0-2e-3 0.5 0.5 0 0 0 0-2e-3 0.5 0.5 0 0 0 0-2e-3 0.5 0.5 0 0 0 0-2e-3 0.5 0.5 0 0 0 0-2e-3 0.5 0.5 0 0 0 0-2e-3 0.5 0.5 0 0 0 0-2e-3 0.5 0.5 0 0 0 0-2e-3 0.5 0.5 0 0 0 0-2e-3 0.5 0.5 0 0 0 0-2e-3 0.5 0.5 0 0 0 0-2e-3 0.5 0.5 0 0 0 0-2e-3v-0.46685c0-0.0295-3e-3 -0.0589-8e-3 -0.0879-6.3e-4 -3e-3 -8.6e-4 -9e-3 -2e-3 -0.0117-1e-3 -5e-3 -2e-3 -0.0104-4e-3 -0.0156-5e-3 -0.0239-0.0126-0.0474-0.0215-0.0703-5e-3 -0.0113-0.01-0.0223-0.0156-0.0332-7e-3 -0.0154-0.0149-0.0304-0.0234-0.0449-8e-3 -0.0135-0.0176-0.0265-0.0273-0.0391-0.0121-0.0157-0.0252-0.0307-0.0391-0.0449-2e-3 -3e-3 -4e-3 -5e-3 -6e-3 -8e-3l-0.0312-0.0312-3.9395-3.9375c-9e-3 -0.0108-0.0191-0.0212-0.0293-0.0312-1e-3 -6.5e-4 -3e-3 -9e-4 -4e-3 -2e-3 -0.0325-0.0322-0.0693-0.0598-0.10938-0.082l-4e-3 -4e-3c-3e-3 -1e-3 -7e-3 -3e-3 -0.01-4e-3 -0.0407-0.0208-0.0841-0.0359-0.12891-0.0449-0.032-6e-3 -0.0648-0.01-0.0976-0.01zm0.5 1.7109 2.291 2.291h-2.291zm1.2051 4.875a0.5 0.5 0 0 0-0.35352 0.14844l-1.7676 1.7676 1.7676 1.7695a0.5 0.5 0 0 0 0.70703 0 0.5 0.5 0 0 0 0-0.70703l-0.5625-0.5625h4.502a0.5 0.5 0 0 0 0.5-0.5 0.5 0.5 0 0 0-0.5-0.5h-4.498l0.55859-0.56055a0.5 0.5 0 0 0 0-0.70703 0.5 0.5 0 0 0-0.35352-0.14844z"/>
  <path d="m180.8 154.36c-2.7555 0-5 2.2445-5 5s2.2445 5 5 5c1.1975 0 2.298-0.42532 3.1602-1.1309l4.4863 4.4863a0.5 0.5 0 0 0 0.70703 0 0.5 0.5 0 0 0 0-0.70898l-4.4844-4.4844c0.70664-0.86253 1.1309-1.9636 1.1309-3.1621 0-2.7555-2.2445-5-5-5zm0 1c2.2151 0 4 1.7849 4 4 0 1.099-0.43904 2.0907-1.1523 2.8125a0.5 0.5 0 0 0-0.0195 0.0156 0.5 0.5 0 0 0-0.0137 0.0176c-0.72179 0.71344-1.7153 1.1543-2.8145 1.1543-2.2151 0-4-1.7849-4-4s1.7849-4 4-4z"/>
  <path d="m314 155.11v1.5c0 0.27614 0.22386 0.5 0.5 0.5s0.5-0.22386 0.5-0.5v-0.5h4.5v10h-0.5c-0.27614 0-0.5 0.22386-0.5 0.5s0.22386 0.5 0.5 0.5h2c0.27614 0 0.5-0.22386 0.5-0.5s-0.22386-0.5-0.5-0.5h-0.5v-10h4.5v0.5c0 0.27614 0.22386 0.5 0.5 0.5s0.5-0.22386 0.5-0.5v-1.5z"/>
 </g>
 <g transform="translate(1.421)">
  <path d="m318.58 88.725a72.291 72.291 0 0 0-72.291 72.291 72.291 72.291 0 0 0 8e-3 0.11747h-8e-3v72.173h44.373v-5.745a72.291 72.291 0 0 0 27.917 5.745 72.291 72.291 0 0 0 72.291-72.291 72.291 72.291 0 0 0-72.291-72.291zm0 44.373a27.918 27.918 0 0 1 27.918 27.918 27.918 27.918 0 0 1-27.918 27.918 27.918 27.918 0 0 1-27.918-27.918 27.918 27.918 0 0 1 27.918-27.918z" fill="#fff" stroke-width=".51405" style="-inkscape-stroke:none;font-variation-settings:normal"/>
  <path d="m290.67 159.91v66.549a72.291 72.291 0 0 0 27.918 5.745 72.291 72.291 0 0 0 72.291-72.291 72.291 72.291 0 0 0 0-1e-3h-44.373a27.918 27.918 0 0 1 0 1e-3 27.918 27.918 0 0 1-27.918 27.918 27.918 27.918 0 0 1-27.917-27.918 27.918 27.918 0 0 1 0-1e-3z" fill="url(#linearGradient11)" stop-color="#000000" stroke-width="1.8947" style="-inkscape-stroke:none;font-variation-settings:normal"/>
 </g>
 <text x="319.78217" y="261.00598" fill="#ffffff" font-family="Sora" font-size="9.2698px" font-weight="500" letter-spacing="0px" stroke-width=".047671" text-align="center" text-anchor="middle" word-spacing="0px" style="-inkscape-stroke:none;font-variation-settings:normal;line-height:13.0657px;text-decoration-color:#000000" xml:space="preserve"><tspan x="319.78217" y="261.00598" fill="#ffffff" font-family="Sora" font-weight="600" stroke-width=".047671">Repath Studio</tspan></text>
</svg>
