<svg width="223px" height="30px" version="1.1" viewBox="0 0 223 30" xmlns="http://www.w3.org/2000/svg">
    <rect width="223" height="30" rx="8" fill="#ff5e5b" fill-rule="evenodd"/>
    <path d="m25.295 7c-.71556 0-1.2949.57936-1.2949 1.2949v11.953c0 1.4311 1.1607 2.5918 2.5918 2.5918h12.234c1.4311 0 2.5918-1.1607 2.5918-2.5918v-1.6895h1.6074c3.1008 0 5.6152-2.5125 5.6152-5.6133v-.33008c0-3.1008-2.5145-5.6152-5.6152-5.6152h-1.6074-16.123zm16.123 2.9961h1.4648c1.5368 0 2.7832 1.2464 2.7832 2.7832 0 1.5368-1.2464 2.7832-2.7832 2.7832h-1.4648v-5.5664zm-11.904.52344c1.497 0 2.4454.58658 2.8457 1.7578.40029-1.1712 1.3487-1.7578 2.8457-1.7578 2.2455 0 3.0794 2.7947 1.9023 4.6211-.78469 1.2176-2.3682 2.7567-4.748 4.6191-2.3799-1.8624-3.9614-3.4016-4.7461-4.6191-1.177-1.8264-.34511-4.6211 1.9004-4.6211z" fill="#fff"/>
    <g fill="#fff" stroke-width=".312" aria-label="Support me on Ko-fi">
        <path d="m64.102 18.788q-1.2355 0-2.0842-.38688-.84865-.39936-1.2854-1.0733-.4368-.68641-.4368-1.5725h1.9843q0 .34944.1872.64896.19968.29952.59904.48672.39936.17472 1.0358.17472.57408 0 .96097-.14976.38688-.14976.58656-.41184.19968-.27456.19968-.624 0-.4368-.3744-.6864-.3744-.26208-1.2106-.33696l-.68641-.0624q-1.3603-.11232-2.1715-.84865-.81121-.73633-.81121-1.9469 0-.87361.41184-1.5101.42432-.63648 1.1731-.97345.74881-.34944 1.7722-.34944 1.0733 0 1.8346.3744.77377.36192 1.1856 1.0358.41184.66144.41184 1.56h-1.9968q0-.33696-.16224-.61152-.16224-.28704-.48672-.46176-.312-.17472-.78625-.17472-.44928 0-.76129.14976-.29952.14976-.44928.41184-.14976.2496-.14976.54912 0 .38688.27456.67393.27456.28704.89857.33696l.69889.0624q.99841.08736 1.7597.4368.76129.33696 1.1856.93601.4368.58656.4368 1.4352 0 .87361-.46176 1.5351-.44928.64896-1.2854 1.0109-.83617.36192-1.9968.36192z"/>
        <path d="m71.453 18.763q-1.1856 0-1.8221-.76129-.63648-.77377-.63648-2.3213v-3.9687h1.9968v4.0685q0 .54912.312.87361.312.32448.83617.32448.53664 0 .87361-.33696.33696-.33696.33696-.91105v-4.0186h1.9968v6.8391h-1.585v-2.8829h.13728q0 1.0358-.27456 1.7347-.26208.68641-.78625 1.0234-.52416.33696-1.2979.33696z"/>
        <path d="m77.194 21.047v-9.3351h1.585v2.9578l-.21216-.01248q.04992-1.0234.42432-1.7223.3744-.71137 1.0109-1.0608.63648-.36192 1.4352-.36192.71137 0 1.2854.26208.58656.26208.99841.73633.42432.46176.63648 1.0982.22464.624.22464 1.3728v.28704q0 .73633-.21216 1.3853-.21216.63649-.624 1.1107-.39936.47424-.98593.74881-.57408.26208-1.3229.26208-.77377 0-1.3978-.312-.61152-.32448-.98593-.97345-.3744-.66144-.41184-1.6723l.54912.74881v4.4804zm3.6816-3.9437q.51168 0 .88609-.2496.38688-.2496.59904-.69889.21216-.44928.21216-1.0358 0-.58656-.21216-1.0234-.21216-.4368-.58656-.67392-.3744-.2496-.89857-.2496-.44928 0-.84865.21216-.39936.21216-.64896.61152-.23712.38688-.23712.94849v.46176q0 .53664.2496.92353.26208.3744.66144.57408.39936.19968.82369.19968z"/>
        <path d="m85.967 21.047v-9.3351h1.585v2.9578l-.21216-.01248q.04992-1.0234.42432-1.7223.3744-.71137 1.0109-1.0608.63648-.36192 1.4352-.36192.71137 0 1.2855.26208.58656.26208.99841.73633.42432.46176.63648 1.0982.22464.624.22464 1.3728v.28704q0 .73633-.21216 1.3853-.21216.63649-.624 1.1107-.39936.47424-.98593.74881-.57408.26208-1.3229.26208-.77377 0-1.3978-.312-.61152-.32448-.98593-.97345-.3744-.66144-.41184-1.6723l.54912.74881v4.4804zm3.6816-3.9437q.51168 0 .88609-.2496.38688-.2496.59904-.69889.21216-.44928.21216-1.0358 0-.58656-.21216-1.0234-.21216-.4368-.58656-.67392-.3744-.2496-.89857-.2496-.44928 0-.84865.21216-.39936.21216-.64896.61152-.23712.38688-.23712.94849v.46176q0 .53664.2496.92353.26208.3744.66144.57408.39936.19968.82369.19968z"/>
        <path d="m98.073 18.788q-.89857 0-1.5975-.27456-.69889-.28704-1.1856-.77377-.47424-.48672-.72384-1.1107-.2496-.63648-.2496-1.3354v-.28704q0-.71136.2496-1.3478.26208-.64897.74881-1.1357.4992-.48672 1.1981-.76129.69889-.28704 1.56-.28704.88609 0 1.5725.28704.69888.27456 1.1856.76129.48672.48672.7488 1.1357.26208.63648.26208 1.3478v.28704q0 .69888-.2496 1.3354-.2496.624-.73632 1.1107-.47425.48672-1.1731.77377-.69889.27456-1.6099.27456zm0-1.6848q.58656 0 .97345-.2496.38688-.2496.58656-.69889.21216-.44928.21216-.99841 0-.58656-.21216-1.0234-.21216-.44928-.61152-.71136-.38688-.26208-.94849-.26208-.54912 0-.94849.26208t-.61152.71136q-.19968.4368-.19968 1.0234 0 .54912.19968.99841.19968.44928.59904.69889t.96097.2496z"/>
        <path d="m103.24 18.551v-6.8391h1.585v2.9328h-.0374q0-1.4477.61153-2.2339.624-.78625 1.7971-.78625h.26209v1.7223h-.49921q-.82369 0-1.273.44928-.44928.4368-.44928 1.273v3.4819z"/>
        <path d="m111.76 18.638q-1.0358 0-1.6723-.2496-.63649-.26208-.93601-.86113-.28704-.61152-.28704-1.6474v-6.0154h1.8595v6.0903q0 .48672.2496.74881.26208.2496.73633.2496h1.0109v1.6848zm-3.9312-5.4663v-1.4602h4.8922v1.4602z"/>
        <path d="m116.69 18.551v-6.8391h1.585v2.9453h-.11232q0-1.0483.26208-1.7472.26208-.69889.78625-1.0483.52416-.36192 1.2854-.36192h.0874q.77377 0 1.2854.36192.52416.34944.78625 1.0483.27456.69888.27456 1.7472h-.48673q0-1.0483.26209-1.7472.27456-.69889.79872-1.0483.52417-.36192 1.2854-.36192h.0874q.77377 0 1.2979.36192.53665.34944.81121 1.0483.27456.69888.27456 1.7472v3.8938h-1.9968v-4.0061q0-.5616-.29953-.91105-.28704-.34944-.82368-.34944-.53665 0-.84865.36192-.312.34944-.312.93601v3.9687h-2.0093v-4.0061q0-.5616-.29952-.91105-.28704-.34944-.81121-.34944-.54912 0-.86112.36192-.31201.34944-.31201.93601v3.9687z"/>
        <path d="m132.09 18.788q-.87361 0-1.5475-.29952-.66145-.29952-1.1107-.79873-.4368-.51168-.67393-1.1357-.22464-.63648-.22464-1.2979v-.2496q0-.6864.22464-1.3104.23713-.63648.67393-1.1357t1.0858-.78625q.66144-.29952 1.4976-.29952 1.0982 0 1.847.4992.76129.48672 1.1606 1.2854.39937.78625.39937 1.7223v.67392h-6.0528v-1.1357h4.8423l-.64897.52416q0-.61152-.17472-1.0483-.17472-.4368-.52416-.66144-.33697-.23712-.84865-.23712-.52416 0-.88609.23712-.36192.23712-.54912.69889-.1872.44928-.1872 1.1107 0 .61152.17472 1.0733.17472.44928.54912.69889.37441.2496.97345.2496.54912 0 .89857-.21216.34944-.21216.47424-.52416h1.8346q-.14977.6864-.58657 1.223-.4368.53664-1.0982.83617-.66144.29952-1.5226.29952z"/>
        <path d="m142.7 18.788q-.89856 0-1.5974-.27456-.69889-.28704-1.1856-.77377-.47424-.48672-.72384-1.1107-.24961-.63648-.24961-1.3354v-.28704q0-.71136.24961-1.3478.26208-.64897.7488-1.1357.49921-.48672 1.1981-.76129.69889-.28704 1.56-.28704.88609 0 1.5725.28704.69888.27456 1.1856.76129.48672.48672.7488 1.1357.26208.63648.26208 1.3478v.28704q0 .69888-.2496 1.3354-.2496.624-.73632 1.1107-.47425.48672-1.1731.77377-.69889.27456-1.6099.27456zm0-1.6848q.58657 0 .97345-.2496t.58657-.69889q.21216-.44928.21216-.99841 0-.58656-.21216-1.0234-.21217-.44928-.61153-.71136-.38688-.26208-.94849-.26208-.54912 0-.94848.26208-.39937.26208-.61153.71136-.19968.4368-.19968 1.0234 0 .54912.19968.99841.19968.44928.59905.69889.39936.2496.96096.2496z"/>
        <path d="m147.87 18.551v-6.8391h1.585v2.9328h-.11232q0-1.0483.26208-1.7472.27456-.69888.82369-1.0483.54912-.34944 1.3354-.34944h.0874q1.1981 0 1.8221.78625.63649.77377.63649 2.3587v3.9063h-1.9968v-4.0186q0-.54912-.32448-.89857-.32448-.34944-.87361-.34944-.5616 0-.91105.36192-.33696.34944-.33696.92353v3.9812z"/>
        <path d="m164.73 18.551-3.145-4.2557h-1.2605l3.8189-4.8548h2.3463l-3.432 4.3556-.025-.88609 4.1684 5.641zm-5.9904 0v-9.1105h2.0467v9.1105z"/>
        <path d="m171.12 18.788q-.89856 0-1.5974-.27456-.69888-.28704-1.1856-.77377-.47424-.48672-.72384-1.1107-.24961-.63648-.24961-1.3354v-.28704q0-.71136.24961-1.3478.26208-.64897.7488-1.1357.49921-.48672 1.1981-.76129.69889-.28704 1.56-.28704.88609 0 1.5725.28704.69888.27456 1.1856.76129.48672.48672.7488 1.1357.26208.63648.26208 1.3478v.28704q0 .69888-.2496 1.3354-.2496.624-.73632 1.1107-.47425.48672-1.1731.77377-.69889.27456-1.6099.27456zm0-1.6848q.58657 0 .97345-.2496t.58657-.69889q.21216-.44928.21216-.99841 0-.58656-.21216-1.0234-.21217-.44928-.61153-.71136-.38688-.26208-.94849-.26208-.54912 0-.94848.26208-.39937.26208-.61153.71136-.19968.4368-.19968 1.0234 0 .54912.19968.99841.19968.44928.59905.69889.39936.2496.96096.2496z"/>
        <path d="m175.92 15.905v-1.7722h5.2541v1.7722z"/>
        <path d="m182.78 18.551v-6.9764q0-1.1856.66145-1.7597.67392-.57408 1.9843-.57408h.67392v1.4976h-.76129q-.33696 0-.52416.1872-.17472.1872-.17472.52416v7.1012zm-.79872-5.3165v-1.4602h4.0935v1.4602zm5.4413 5.3165v-6.8391h1.9968v6.8391zm-.81121-5.3664v-1.4727h2.808v1.4727zm1.585-2.1466q-.56161 0-.83617-.28704-.26208-.29952-.26208-.74881 0-.46176.26208-.74881.27456-.29952.83617-.29952.57408 0 .83616.29952.26209.28704.26209.74881 0 .44928-.26209.74881-.26208.28704-.83616.28704z"/>
    </g>
</svg>
