<?xml version="1.0" encoding="UTF-8"?>
<svg width="512" height="512" version="1.1" viewBox="0 0 135.47 135.47" xmlns="http://www.w3.org/2000/svg" xmlns:xlink="http://www.w3.org/1999/xlink">
 <defs>
  <linearGradient id="linearGradient8" x1="1516.3" x2="1624.9" y1="732.63" y2="732.63" gradientTransform="translate(405.48 -253.79)" gradientUnits="userSpaceOnUse">
   <stop stop-color="#d2d2d2" offset="0"/>
   <stop stop-color="#fff" stop-opacity="0" offset="1"/>
  </linearGradient>
  <linearGradient id="linearGradient5" x1="67.735" x2="67.735" y1="131.41" y2="4.0578" gradientTransform="matrix(1.0637 0 0 1.0637 -4.3163 -4.3163)" gradientUnits="userSpaceOnUse">
   <stop stop-color="#d01761" offset="0"/>
   <stop stop-color="#e93976" offset="1"/>
  </linearGradient>
 </defs>
 <rect y="-1.6875e-14" width="135.47" height="135.47" rx="0" ry="0" fill="url(#linearGradient5)" stop-color="#000000" stroke-width=".26446" style="-inkscape-stroke:none;font-variation-settings:normal"/>
 <g transform="matrix(.24941 0 0 .24941 -424.54 -51.689)">
  <path d="m1976.1 338.21a140.63 140.63 0 0 0-140.63 140.63 140.63 140.63 0 0 0 0.016 0.22852h-0.016v140.4h86.32v-11.176a140.63 140.63 0 0 0 54.309 11.176 140.63 140.63 0 0 0 140.63-140.63 140.63 140.63 0 0 0-140.63-140.63zm0 86.32a54.309 54.309 0 0 1 54.309 54.309 54.309 54.309 0 0 1-54.309 54.309 54.309 54.309 0 0 1-54.309-54.309 54.309 54.309 0 0 1 54.309-54.309z" fill="#fff" style="-inkscape-stroke:none;font-variation-settings:normal"/>
  <path d="m1921.8 478.83v129.46a140.63 140.63 0 0 0 54.31 11.176 140.63 140.63 0 0 0 140.63-140.63 140.63 140.63 0 0 0 0-2e-3h-86.32a54.309 54.309 0 0 1 0 2e-3 54.309 54.309 0 0 1-54.309 54.309 54.309 54.309 0 0 1-54.308-54.309 54.309 54.309 0 0 1 0-2e-3z" fill="url(#linearGradient8)" stop-color="#000000" stroke-width="3.6859" style="-inkscape-stroke:none;font-variation-settings:normal"/>
 </g>
</svg>
