<svg width="512" height="512" version="1.1" viewBox="0 0 135.47 135.47" xmlns="http://www.w3.org/2000/svg">
 <defs>
  <linearGradient id="linearGradient4-7" x1="349.46" x2="349.46" y1="557.68" y2="2.442" gradientTransform="matrix(.19468 0 0 .24399 -.12256 -.5958)" gradientUnits="userSpaceOnUse">
   <stop stop-color="#ad1457" offset="0"/>
   <stop stop-color="#d01761" offset="1"/>
  </linearGradient>
  <linearGradient id="linearGradient11-5" x1="1516.3" x2="1624.9" y1="732.63" y2="732.63" gradientTransform="matrix(.27913 0 0 .27913 -370.48 -136.76)" gradientUnits="userSpaceOnUse">
   <stop stop-color="#4e2e3d" stop-opacity=".33409" offset="0"/>
   <stop stop-color="#fff" stop-opacity="0" offset="1"/>
  </linearGradient>
 </defs>
 <rect x=".35284" y="2.1193e-7" width="135.12" height="135.47" rx="0" ry="0" fill="url(#linearGradient4-7)" stop-color="#000000" stroke-width=".20479" style="-inkscape-stroke:none;font-variation-settings:normal"/>
 <path d="m67.911 28.481a39.254 39.254 0 0 0-39.254 39.254 39.254 39.254 0 0 0 0.0043 0.0638h-0.0043v39.19h24.094v-3.1192a39.254 39.254 0 0 0 15.159 3.1192 39.254 39.254 0 0 0 39.254-39.254 39.254 39.254 0 0 0-39.254-39.254zm0 24.094a15.159 15.159 0 0 1 15.159 15.159 15.159 15.159 0 0 1-15.159 15.159 15.159 15.159 0 0 1-15.159-15.159 15.159 15.159 0 0 1 15.159-15.159z" fill="#fff" stroke-width=".23439" style="-inkscape-stroke:none;font-variation-settings:normal"/>
 <path d="m52.751 67.733v36.135a39.254 39.254 0 0 0 15.159 3.1192 39.254 39.254 0 0 0 39.254-39.254 39.254 39.254 0 0 0 0-5e-4h-24.094a15.159 15.159 0 0 1 0 5e-4 15.159 15.159 0 0 1-15.159 15.159 15.159 15.159 0 0 1-15.158-15.159 15.159 15.159 0 0 1 0-5e-4z" fill="url(#linearGradient11-5)" stop-color="#000000" stroke-width="1.0288" style="-inkscape-stroke:none;font-variation-settings:normal"/>
</svg>
