<svg width="512" height="512" version="1.1" viewBox="0 0 135.47 135.47" xmlns="http://www.w3.org/2000/svg" xmlns:xlink="http://www.w3.org/1999/xlink">
    <defs>
        <linearGradient id="linearGradient21631" x1="-171.01" x2="-171.01" y1="390.3" y2="254.84" gradientTransform="matrix(3.7431 0 0 3.7431 -383.8 318.45)" gradientUnits="userSpaceOnUse">
            <stop stop-color="#dfdfdf" offset="0"/>
            <stop stop-color="#efefef" offset="1"/>
        </linearGradient>
    </defs>
    <path transform="scale(.26459)" d="m256 0c-141.82 0-256 114.18-256 256s114.18 256 256 256 256-114.18 256-256-114.18-256-256-256zm13.561 129.12v.00391c69.61 0 126.87 57.273 126.87 126.88 0 69.606-57.267 126.87-126.87 126.87h-126.87l-.70312-214.67c-.00034-21.581 17.495-39.076 39.076-39.076 11.721.00139 22.822 5.2617 30.242 14.334 17.486-9.1471 37.311-14.338 58.256-14.338zm0 78.137c-27.132 0-48.334 20.98-48.717 48.002v49.477h48.717c27.379 0 48.732-21.356 48.732-48.736 0-27.38-21.353-48.742-48.732-48.742z" fill="url(#linearGradient21631)" stop-color="#000000" stroke-width="3.7794" style="-inkscape-stroke:none;font-variation-settings:normal"/>
    <rect x="-436.92" y="-251.2" width="15.634" height="15.634" rx="7.8172" ry="7.8172" fill="#dfdfdf" stop-color="#000000" stroke-width=".11541" style="-inkscape-stroke:none;font-variation-settings:normal"/>
</svg>
