<?xml version="1.0" encoding="UTF-8"?>
<svg width="512" height="512" version="1.1" viewBox="0 0 135.47 135.47" xmlns="http://www.w3.org/2000/svg" xmlns:xlink="http://www.w3.org/1999/xlink">
 <defs>
  <linearGradient id="linearGradient8" x1="1516.3" x2="1624.9" y1="732.63" y2="732.63" gradientTransform="translate(405.48 -253.79)" gradientUnits="userSpaceOnUse">
   <stop stop-color="#d2d2d2" offset="0"/>
   <stop stop-color="#fff" stop-opacity="0" offset="1"/>
  </linearGradient>
 </defs>
 <rect x="-436.92" y="-251.2" width="15.634" height="15.634" rx="7.8172" ry="7.8172" fill="#dfdfdf" stop-color="#000000" stroke-width=".11541" style="-inkscape-stroke:none;font-variation-settings:normal"/>
 <g transform="matrix(.48165 0 0 .48165 -884.07 -162.9)">
  <path d="m1976.1 338.21a140.63 140.63 0 0 0-140.63 140.63 140.63 140.63 0 0 0 0.016 0.22852h-0.016v140.4h86.32v-11.176a140.63 140.63 0 0 0 54.309 11.176 140.63 140.63 0 0 0 140.63-140.63 140.63 140.63 0 0 0-140.63-140.63zm0 86.32a54.309 54.309 0 0 1 54.309 54.309 54.309 54.309 0 0 1-54.309 54.309 54.309 54.309 0 0 1-54.309-54.309 54.309 54.309 0 0 1 54.309-54.309z" fill="#fff" style="-inkscape-stroke:none;font-variation-settings:normal"/>
  <path d="m1921.8 478.83v129.46a140.63 140.63 0 0 0 54.31 11.176 140.63 140.63 0 0 0 140.63-140.63 140.63 140.63 0 0 0 0-2e-3h-86.32a54.309 54.309 0 0 1 0 2e-3 54.309 54.309 0 0 1-54.309 54.309 54.309 54.309 0 0 1-54.308-54.309 54.309 54.309 0 0 1 0-2e-3z" fill="url(#linearGradient8)" stop-color="#000000" stroke-width="3.6859" style="-inkscape-stroke:none;font-variation-settings:normal"/>
 </g>
</svg>
