<svg width="512" height="512" version="1.1" viewBox="0 0 135.47 135.47" xmlns="http://www.w3.org/2000/svg" xmlns:xlink="http://www.w3.org/1999/xlink">
    <rect width="135.47" height="135.47" rx="0" ry="0" fill="#33445b" stop-color="#000000" style="-inkscape-stroke:none;font-variation-settings:normal"/>
    <path d="m71.321 34.166c-5.5421 0-10.787 1.3739-15.414 3.7942-1.9634-2.4004-4.9008-3.7928-8.0018-3.7932-5.7104-2.7e-5-10.339 4.629-10.339 10.339l.18602 56.801h33.569c18.417 0 33.569-15.151 33.569-33.568 0-18.417-15.151-33.571-33.569-33.571zm0 20.674c7.2446 0 12.894 5.6522 12.894 12.897s-5.6499 12.895-12.894 12.895h-12.89v-13.091c.10131-7.1496 5.7111-12.701 12.89-12.701z" fill="#f00061" stop-color="#000000" style="-inkscape-stroke:none;font-variation-settings:normal"/>
</svg>
