<?xml version="1.0" encoding="UTF-8" standalone="no"?>
<svg
   width="233.16148"
   height="30"
   version="1.1"
   viewBox="0 0 233.16149 29.999999"
   id="svg12950"
   sodipodi:docname="paypal-button.svg"
   inkscape:version="1.2 (dc2aedaf03, 2022-05-15)"
   xml:space="preserve"
   inkscape:export-filename="paypal-button.png"
   inkscape:export-xdpi="121.6"
   inkscape:export-ydpi="121.6"
   xmlns:inkscape="http://www.inkscape.org/namespaces/inkscape"
   xmlns:sodipodi="http://sodipodi.sourceforge.net/DTD/sodipodi-0.dtd"
   xmlns="http://www.w3.org/2000/svg"
   xmlns:svg="http://www.w3.org/2000/svg"><defs
     id="defs12954" /><sodipodi:namedview
     id="namedview12952"
     pagecolor="#ffffff"
     bordercolor="#999999"
     borderopacity="1"
     inkscape:showpageshadow="0"
     inkscape:pageopacity="0"
     inkscape:pagecheckerboard="0"
     inkscape:deskcolor="#d1d1d1"
     showgrid="false"
     inkscape:zoom="4.3627758"
     inkscape:cx="20.743674"
     inkscape:cy="-7.5639918"
     inkscape:window-width="2560"
     inkscape:window-height="1371"
     inkscape:window-x="0"
     inkscape:window-y="0"
     inkscape:window-maximized="1"
     inkscape:current-layer="svg12950"
     showguides="false" /><rect
     width="233.16148"
     height="30"
     rx="8"
     fill="#ff5e5b"
     fill-rule="evenodd"
     id="rect2"
     x="0"
     y="0"
     style="font-variation-settings:normal;fill:#253b80;fill-opacity:1;stroke-width:1.032;stroke-linecap:butt;stroke-linejoin:miter;stroke-miterlimit:4;stroke-dasharray:none;stroke-dashoffset:0;stroke-opacity:1;stop-color:#000000" /><text
     xml:space="preserve"
     style="font-style:normal;font-variant:normal;font-weight:bold;font-stretch:normal;font-size:13px;line-height:1.25;font-family:Sora;-inkscape-font-specification:'Sora Bold';fill:#ffffff;fill-opacity:1;stroke-width:0.105295"
     x="60.103268"
     y="18.698511"
     id="text4993"><tspan
       sodipodi:role="line"
       id="tspan4991"
       x="60.103268"
       y="18.698511"
       style="font-size:13px;stroke-width:0.105295">Support me on PayPal</tspan></text><path
     fill="#179bd7"
     d="m 40.052056,11.060088 v 0 0 c -0.01578,0.10089 -0.03382,0.204034 -0.05411,0.309996 -0.697211,3.579614 -3.082492,4.816218 -6.128912,4.816218 h -1.551109 c -0.372559,0 -0.686501,0.270542 -0.744555,0.638029 v 0 0 l -0.794154,5.036596 -0.224889,1.427674 c -0.03776,0.241234 0.148235,0.458795 0.391723,0.458795 h 2.751077 c 0.325778,0 0.602521,-0.236724 0.653811,-0.557993 l 0.02705,-0.139781 0.517976,-3.287089 0.03325,-0.180361 c 0.05073,-0.322397 0.328033,-0.559121 0.653811,-0.559121 h 0.41145 c 2.665405,0 4.751963,-1.08217 5.361811,-4.213697 0.25476,-1.308185 0.122871,-2.4005 -0.55123,-3.168727 -0.204035,-0.231652 -0.457104,-0.42385 -0.75301,-0.580539 z"
     id="path22395"
     style="fill:#ffffff;fill-opacity:0.301498;stroke:none;stroke-width:56;stroke-dasharray:none" /><path
     fill="#222d65"
     d="m 39.322714,10.769241 c -0.106526,-0.031 -0.216434,-0.05918 -0.32916,-0.08454 -0.113289,-0.0248 -0.229397,-0.04678 -0.348887,-0.06594 -0.418213,-0.06764 -0.876444,-0.09976 -1.367366,-0.09976 h -4.143807 c -0.102017,0 -0.198961,0.02311 -0.28576,0.06482 -0.19107,0.09187 -0.333105,0.272797 -0.367487,0.494303 l -0.881517,5.583318 -0.02536,0.162889 c 0.05805,-0.367487 0.371996,-0.638029 0.744555,-0.638029 h 1.551109 c 3.04642,0 5.431701,-1.237168 6.128912,-4.816218 0.02085,-0.105962 0.03833,-0.209106 0.05411,-0.309996 -0.176416,-0.09356 -0.367487,-0.173598 -0.573212,-0.241797 -0.05073,-0.01691 -0.103144,-0.03325 -0.156125,-0.04904 z"
     id="path22397"
     style="fill:#ffffff;fill-opacity:0.693329;stroke-width:0.175853" /><path
     fill="#253b80"
     d="m 32.480247,11.07811 c 0.03438,-0.221506 0.176417,-0.402432 0.367487,-0.49374 0.08736,-0.04171 0.183743,-0.06482 0.28576,-0.06482 h 4.143807 c 0.490922,0 0.949153,0.03213 1.367366,0.09976 0.11949,0.01916 0.235598,0.04115 0.348887,0.06594 0.112726,0.02536 0.222634,0.05354 0.32916,0.08455 0.05298,0.01578 0.105399,0.03213 0.156689,0.04847 0.205725,0.0682 0.396795,0.148798 0.573212,0.241797 C 40.26003,9.7372348 40.050924,8.8365542 39.335677,8.0209818 38.547159,7.1231195 37.123994,6.7387239 35.302906,6.7387239 h -5.286848 c -0.371996,0 -0.68932,0.2705423 -0.74681,0.6385926 L 27.067146,21.33561 c -0.0434,0.276179 0.169653,0.525303 0.448086,0.525303 h 3.263981 l 0.819517,-5.199485 z"
     id="path22399"
     style="fill:#ffffff;fill-opacity:1;stroke-width:0.175853" /></svg>
